<?xml version="1.0" standalone="no"?>
<!DOCTYPE svg PUBLIC "-//W3C//DTD SVG 20010904//EN"
 "http://www.w3.org/TR/2001/REC-SVG-20010904/DTD/svg10.dtd">
<svg version="1.0" xmlns="http://www.w3.org/2000/svg"
 width="3508.000000pt" height="1396.000000pt" viewBox="0 0 3508.000000 1396.000000"
 preserveAspectRatio="xMidYMid meet">

<g transform="translate(0.000000,1396.000000) scale(0.100000,-0.100000)"
fill="#000000" stroke="none">
<path d="M15114 13801 l-111 -6 -128 -152 c-76 -91 -132 -150 -139 -146 -6 4
-57 35 -112 70 -56 35 -105 63 -109 63 -11 0 -245 -134 -245 -141 0 -3 49 -39
110 -80 60 -41 110 -76 110 -79 0 -3 -107 -41 -237 -84 -131 -43 -247 -82
-258 -86 -18 -7 -20 -15 -17 -77 l4 -70 241 78 c133 42 244 76 246 74 2 -2
-56 -74 -129 -159 l-131 -156 129 0 129 0 133 160 c73 88 135 160 138 160 2 0
55 -31 116 -70 62 -38 116 -70 120 -70 8 0 246 140 246 144 0 2 -49 37 -110
77 -60 41 -108 78 -106 83 1 6 112 47 247 91 l244 82 -3 63 c-1 35 -4 66 -7
68 -2 3 -106 -27 -231 -67 -124 -40 -229 -71 -234 -69 -4 2 48 70 116 151 68
82 124 151 124 153 0 2 -8 3 -17 2 -10 -1 -68 -4 -129 -7z"/>
<path d="M17380 13334 c-107 -79 -198 -144 -201 -144 -3 0 -18 54 -33 119
l-27 119 -32 -12 c-18 -7 -80 -30 -138 -50 l-106 -37 22 -127 c12 -70 21 -129
19 -131 -2 -2 -108 -14 -235 -27 -128 -14 -234 -25 -235 -27 -10 -13 -91 -163
-89 -165 1 -2 86 4 188 13 103 9 199 15 214 13 23 -3 1 -22 -170 -146 -108
-79 -197 -147 -197 -150 0 -4 37 -22 81 -41 71 -30 84 -33 103 -21 11 7 103
73 202 146 100 74 186 134 191 134 5 0 17 -37 26 -82 9 -46 22 -100 27 -120
l11 -37 122 43 c67 24 129 47 138 51 15 5 14 18 -7 138 -13 72 -22 132 -21
133 1 1 107 13 235 25 l233 24 45 81 c24 44 44 83 44 85 0 3 -93 -3 -207 -13
-115 -10 -212 -16 -217 -15 -5 2 80 68 189 147 l197 145 -39 17 c-21 9 -60 25
-88 36 l-50 19 -195 -143z"/>
<path d="M11994 13402 l-141 -36 -49 -148 c-47 -144 -49 -148 -74 -144 -14 3
-100 10 -192 17 l-167 12 -96 -83 c-53 -45 -94 -84 -92 -86 2 -2 86 -13 187
-24 101 -11 185 -22 187 -24 2 -2 -109 -64 -247 -138 l-251 -135 55 -47 54
-47 239 125 c131 69 239 122 241 118 1 -4 -18 -68 -43 -142 -25 -74 -45 -137
-45 -141 0 -9 300 67 310 78 3 4 26 70 51 147 24 76 49 140 55 143 7 3 94 -3
195 -11 l182 -16 65 57 c35 32 77 68 93 81 16 13 29 27 29 31 0 4 -83 16 -185
26 -102 10 -185 21 -185 26 0 4 107 65 239 135 l239 129 -37 32 c-73 64 -55
68 -302 -61 -200 -104 -239 -123 -239 -113 0 1 20 64 44 140 25 80 39 137 32
136 -6 -1 -74 -17 -152 -37z"/>
<path d="M18657 12375 c-49 -7 -93 -17 -97 -21 -5 -5 -38 -76 -75 -159 -37
-82 -70 -153 -74 -157 -3 -4 -83 11 -176 32 -94 22 -177 40 -185 40 -8 0 -57
-40 -109 -88 l-94 -87 89 -23 c204 -53 244 -65 244 -72 0 -4 -21 -17 -47 -28
-27 -11 -137 -63 -246 -116 l-198 -95 36 -71 c30 -60 39 -70 56 -65 10 4 121
56 245 116 124 60 230 109 234 109 5 0 -20 -70 -55 -157 -36 -86 -65 -157 -65
-158 0 -4 262 34 267 39 3 3 37 76 75 163 38 87 73 161 77 166 4 4 85 -11 179
-33 95 -22 180 -40 190 -40 10 0 57 40 106 89 l88 88 -166 43 c-91 24 -166 46
-166 50 0 3 107 58 238 120 130 63 239 115 240 116 2 1 -15 34 -37 72 l-41 70
-241 -115 c-132 -63 -242 -113 -245 -111 -2 3 23 71 55 151 l59 147 -36 -1
c-20 -1 -77 -7 -125 -14z"/>
<path d="M9071 12155 c-106 -85 -195 -155 -197 -155 -2 0 -29 49 -62 110 l-58
109 -159 -74 c-87 -42 -160 -77 -162 -79 -3 -2 21 -54 51 -115 55 -108 55
-111 33 -116 -12 -3 -127 -27 -255 -54 -129 -27 -236 -51 -238 -54 -7 -7 -112
-172 -110 -173 0 -1 111 20 246 47 135 27 253 48 263 46 12 -1 -49 -58 -180
-166 -109 -90 -199 -167 -201 -171 -1 -4 32 -10 74 -14 42 -4 89 -10 104 -12
22 -5 54 17 221 151 107 87 199 162 206 167 9 7 27 -21 69 -104 31 -62 57
-114 59 -116 1 -1 77 34 169 78 l167 80 -61 114 -61 114 53 11 c29 6 145 31
257 54 l204 43 49 83 c27 46 47 85 45 87 -3 3 -396 -69 -489 -90 -10 -2 -18
-1 -18 3 0 3 86 78 192 166 216 179 211 167 61 179 l-78 7 -194 -156z"/>
<path d="M6238 10708 l-117 -21 -136 -173 c-75 -96 -137 -174 -140 -174 -2 0
-74 27 -160 60 l-157 60 -155 -106 c-85 -58 -153 -107 -151 -109 2 -1 72 -28
156 -60 84 -32 150 -61 146 -64 -3 -3 -134 -58 -292 -123 l-287 -116 -5 -79
c-3 -43 -5 -79 -5 -80 1 -2 138 51 305 117 166 66 305 119 307 116 3 -2 -57
-86 -131 -185 -75 -100 -131 -181 -124 -181 36 0 290 48 297 56 4 5 67 86 140
180 l132 172 142 -55 c78 -30 151 -58 162 -63 15 -5 35 3 80 35 33 23 102 72
154 109 l94 66 -34 13 c-19 8 -90 36 -158 62 -93 36 -120 50 -107 57 8 5 136
58 282 118 146 60 267 110 269 112 2 2 4 37 7 79 l3 77 -25 -10 c-14 -5 -146
-57 -293 -115 -147 -58 -270 -103 -273 -100 -3 3 51 82 120 176 145 197 149
182 -46 149z"/>
<path d="M11420 10254 c-19 -2 -80 -9 -135 -15 -382 -40 -765 -176 -1035 -367
-120 -85 -286 -250 -368 -367 -227 -322 -338 -794 -291 -1246 37 -366 162
-641 404 -885 167 -169 339 -287 610 -419 148 -71 204 -95 585 -247 473 -189
649 -285 800 -437 90 -90 145 -183 169 -282 75 -318 -80 -609 -414 -777 -384
-193 -871 -187 -1489 20 -156 52 -373 141 -507 208 -49 25 -79 36 -79 28 0 -7
-25 -258 -54 -558 -30 -300 -54 -545 -53 -546 1 -1 82 -20 181 -43 350 -82
617 -130 901 -162 158 -17 704 -23 868 -10 989 83 1649 490 1890 1166 81 227
115 551 86 813 -66 602 -390 1013 -1044 1323 -141 66 -342 148 -620 252 -524
196 -706 289 -847 434 -141 144 -185 313 -144 543 30 163 92 284 202 394 112
113 258 186 454 229 171 38 514 28 825 -24 242 -40 471 -99 653 -168 56 -21
102 -38 102 -37 0 0 25 219 55 485 42 373 52 487 43 492 -22 14 -236 70 -376
99 -327 68 -648 101 -1042 105 -162 2 -311 1 -330 -1z"/>
<path d="M14380 7200 l0 -2960 590 0 590 0 0 1295 0 1295 1065 0 1065 0 0
-1295 0 -1295 590 0 590 0 0 2960 0 2960 -590 0 -590 0 0 -1195 0 -1195 -1065
0 -1065 0 0 1195 0 1195 -590 0 -590 0 0 -2960z"/>
<path d="M20767 7218 c-631 -1619 -1149 -2951 -1153 -2960 -6 -17 27 -18 608
-18 l614 0 249 653 c136 358 254 664 262 680 l14 27 1056 -2 1056 -3 238 -635
c131 -349 246 -654 254 -677 l17 -43 654 0 c360 0 654 3 654 8 0 4 -521 1335
-1158 2957 l-1158 2950 -530 3 -531 2 -1146 -2942z m2016 465 c196 -631 355
-1148 353 -1150 -1 -2 -327 -2 -722 -1 l-720 3 352 1130 c194 622 354 1138
357 1148 3 9 9 17 14 17 5 0 170 -516 366 -1147z"/>
<path d="M26040 7200 l0 -2960 595 0 595 0 0 1230 0 1230 228 0 c236 0 366
-10 466 -35 193 -49 326 -174 435 -407 27 -57 214 -534 417 -1060 l368 -958
664 0 c365 0 661 3 658 8 -2 4 -216 525 -476 1157 -259 633 -494 1195 -521
1250 -152 303 -340 479 -536 502 -46 6 -57 20 -20 27 362 71 594 184 801 389
186 184 318 432 373 704 28 135 25 484 -5 652 -117 658 -543 1025 -1345 1161
-346 58 -637 70 -1769 70 l-928 0 0 -2960z m1831 2020 c571 -30 858 -179 966
-503 25 -77 27 -93 28 -262 0 -161 -2 -188 -23 -255 -65 -207 -182 -340 -383
-434 -211 -100 -470 -136 -971 -136 l-258 0 0 800 0 800 228 0 c125 0 311 -5
413 -10z"/>
<path d="M31260 7200 l0 -2960 1855 0 1855 0 0 465 0 465 -1260 0 -1260 0 0
830 0 830 1155 0 1155 0 0 470 0 470 -1155 0 -1155 0 0 730 0 730 1255 0 1255
0 0 465 0 465 -1850 0 -1850 0 0 -2960z"/>
<path d="M3635 8338 c-177 -111 -301 -183 -303 -176 -1 7 6 81 16 165 l18 151
-40 -16 c-23 -9 -104 -41 -181 -72 l-140 -56 -29 -160 c-16 -87 -30 -160 -31
-162 -1 -1 -124 -12 -273 -25 l-270 -22 -115 -125 c-63 -69 -114 -126 -114
-126 2 -2 406 31 485 39 23 3 42 1 42 -3 0 -3 -128 -89 -285 -190 -157 -101
-282 -186 -278 -190 5 -4 34 -28 65 -54 l57 -48 312 197 c171 108 312 195 314
193 1 -2 -6 -68 -16 -148 -11 -80 -18 -155 -17 -167 l3 -21 55 23 c30 12 112
46 181 74 l126 52 27 162 c15 89 30 164 32 166 2 2 123 14 268 26 145 13 268
25 274 28 5 4 58 61 117 128 l109 121 -50 -6 c-92 -11 -453 -38 -469 -34 -9 2
106 82 259 181 152 98 276 180 276 182 0 2 -28 25 -63 52 l-62 50 -300 -189z"/>
<path d="M1787 5761 c-137 -127 -252 -231 -256 -231 -6 0 -151 159 -193 213
-16 21 -17 20 -195 -87 -98 -59 -182 -112 -186 -116 -5 -4 30 -60 78 -124 49
-64 86 -119 83 -121 -2 -3 -159 -55 -349 -116 l-344 -111 -52 -121 c-29 -66
-51 -122 -50 -124 2 -2 156 46 343 106 186 61 340 109 341 107 3 -3 -86 -91
-343 -339 -67 -64 -119 -119 -115 -121 3 -2 51 -7 106 -11 55 -3 109 -9 121
-11 17 -4 76 46 285 241 l264 246 70 -78 c39 -42 88 -97 111 -121 l40 -44 187
116 186 117 -90 115 c-49 64 -89 119 -89 123 0 4 154 57 343 119 l342 111 46
118 c25 65 45 119 44 121 -2 2 -151 -44 -331 -102 -180 -59 -331 -105 -336
-104 -4 2 94 100 218 218 256 245 250 223 72 235 l-103 6 -248 -230z"/>
<path d="M1695 3582 l-180 -45 -140 -254 -139 -254 -31 5 c-16 2 -134 15 -262
27 l-232 22 -156 -148 c-86 -82 -153 -150 -148 -152 4 -1 109 -16 232 -32 123
-17 226 -33 228 -35 5 -5 -27 -24 -437 -256 -179 -101 -327 -185 -329 -187 -8
-6 76 -198 85 -196 5 1 180 99 388 217 209 119 381 214 383 212 3 -2 -50 -110
-117 -240 -67 -130 -117 -236 -112 -236 21 0 385 99 392 107 5 4 68 118 140
253 73 135 136 249 140 254 5 4 126 -4 271 -18 l264 -26 147 147 c82 81 148
150 148 153 0 4 -100 19 -222 35 -123 15 -227 31 -231 35 -4 4 160 103 366
220 l374 214 -39 85 c-22 47 -43 90 -48 94 -4 5 -173 -86 -376 -201 -203 -116
-370 -206 -372 -202 -2 4 47 108 108 229 60 122 104 221 98 220 -7 -1 -94 -22
-193 -47z"/>
<path d="M10635 3169 c-173 -72 -211 -92 -216 -111 -4 -13 -15 -115 -24 -228
-9 -113 -19 -206 -20 -208 -3 -3 -494 -31 -556 -32 -9 0 -70 -69 -137 -154
l-121 -154 152 4 c84 2 216 6 295 8 78 3 142 2 142 -2 0 -4 -142 -119 -315
-256 -173 -136 -315 -251 -315 -255 0 -4 41 -34 92 -66 75 -47 95 -55 109 -46
10 6 150 112 311 237 342 264 308 264 284 -6 -9 -94 -16 -186 -16 -205 l0 -33
215 92 c118 51 217 94 219 97 3 2 12 109 22 236 l18 233 30 4 c28 5 468 26
523 26 17 0 48 34 129 143 59 78 111 147 116 154 9 11 -29 11 -439 -1 -73 -2
-133 -1 -133 3 0 4 137 117 305 251 l305 242 -95 59 c-55 34 -101 56 -108 52
-7 -4 -137 -103 -290 -221 -153 -117 -284 -215 -292 -219 -12 -4 -14 5 -9 53
7 73 31 389 30 390 -1 1 -95 -38 -211 -87z"/>
<path d="M13230 3200 c-155 -33 -244 -137 -244 -285 -1 -135 59 -207 249 -299
63 -31 133 -72 155 -92 128 -116 34 -294 -156 -294 -35 0 -96 10 -142 23 l-80
23 -6 -35 c-3 -20 -6 -52 -6 -72 0 -37 0 -37 64 -53 99 -25 166 -29 246 -17
209 33 308 145 298 336 -7 138 -63 207 -240 296 -184 92 -218 124 -218 206 0
49 35 98 87 119 48 20 177 17 243 -6 30 -10 56 -17 57 -16 7 7 24 119 20 130
-12 30 -238 54 -327 36z"/>
<path d="M19980 3194 c-187 -40 -323 -176 -375 -375 -23 -85 -23 -252 -1 -339
65 -257 274 -406 544 -386 284 21 459 207 479 511 26 402 -269 671 -647 589z
m253 -144 c146 -55 227 -198 227 -400 0 -271 -146 -432 -379 -418 -94 6 -155
31 -213 90 -84 83 -123 206 -115 358 9 190 101 332 241 376 64 20 176 17 239
-6z"/>
<path d="M30905 3200 c-223 -40 -386 -187 -440 -395 -19 -76 -19 -234 0 -310
74 -291 327 -437 683 -396 56 7 125 19 152 27 l50 15 0 279 0 280 -195 0 -196
0 3 -62 3 -63 113 -3 112 -3 0 -163 0 -163 -37 -7 c-21 -3 -75 -6 -119 -6
-237 0 -403 152 -421 385 -11 137 38 268 133 354 74 68 142 93 270 99 113 5
184 -7 262 -43 l52 -24 0 48 c0 27 3 62 6 78 l6 30 -83 23 c-92 25 -272 35
-354 20z"/>
<path d="M34503 3199 c-119 -20 -249 -91 -323 -177 -176 -204 -171 -565 11
-757 66 -70 124 -107 224 -141 74 -26 91 -28 225 -27 130 0 268 18 301 39 5 3
9 131 9 285 l0 279 -190 0 -190 0 0 -65 0 -65 115 0 115 0 0 -160 c0 -144 -2
-161 -17 -168 -10 -4 -74 -7 -143 -7 -119 0 -128 2 -190 31 -125 59 -212 180
-228 317 -25 202 61 373 226 450 58 27 81 32 165 35 113 5 201 -9 268 -43 l46
-24 7 46 c14 102 12 108 -46 126 -109 34 -270 45 -385 26z"/>
<path d="M13842 2813 c4 -328 7 -385 22 -433 42 -127 102 -202 198 -245 210
-94 467 -29 561 143 55 102 59 136 64 540 l5 372 -81 0 -81 0 0 -345 c0 -361
-5 -415 -45 -495 -28 -55 -47 -73 -105 -99 -52 -24 -150 -28 -214 -9 -54 16
-118 81 -142 144 -16 44 -19 87 -22 427 l-3 377 -80 0 -81 0 4 -377z"/>
<path d="M14970 2651 l0 -541 80 0 80 0 0 241 0 241 95 -4 c91 -3 96 -4 127
-36 23 -22 62 -96 123 -235 l91 -202 87 -3 c48 -1 87 -1 87 2 0 14 -216 457
-236 483 -13 17 -33 35 -45 38 -26 9 -16 19 35 35 49 16 111 71 139 124 16 32
21 59 21 118 0 94 -29 157 -92 205 -74 56 -122 65 -369 70 l-223 5 0 -541z
m415 386 c72 -28 105 -72 105 -141 0 -62 -25 -104 -82 -136 -37 -22 -58 -25
-160 -28 l-118 -4 0 161 0 161 113 -1 c61 0 126 -6 142 -12z"/>
<path d="M15847 3118 c15 -40 106 -282 203 -538 l177 -465 98 0 99 0 207 538
206 537 -81 0 -81 0 -169 -462 c-92 -255 -171 -466 -175 -470 -3 -4 -80 204
-171 462 l-165 470 -87 0 -88 0 27 -72z"/>
<path d="M17010 2650 l0 -540 305 0 306 0 -3 68 -3 67 -227 3 -228 2 0 175 0
175 208 2 207 3 3 68 3 67 -211 0 -210 0 0 155 0 155 228 2 227 3 3 68 3 67
-306 0 -305 0 0 -540z"/>
<path d="M17906 2973 c81 -120 176 -259 211 -310 l63 -92 0 -230 0 -231 80 0
80 0 0 226 0 226 204 303 c112 167 207 308 211 314 5 9 -18 11 -86 9 l-92 -3
-151 -232 c-83 -127 -154 -234 -157 -237 -3 -4 -77 102 -165 234 l-159 240
-93 0 -93 0 147 -217z"/>
<path d="M20860 2650 l0 -540 75 0 75 0 0 245 0 245 200 0 200 0 0 70 0 70
-200 0 -200 0 0 155 0 155 210 0 210 0 0 70 0 70 -285 0 -285 0 0 -540z"/>
<path d="M22370 2650 l0 -540 80 0 80 0 0 245 0 245 260 0 260 0 0 -245 0
-245 75 0 75 0 0 540 0 540 -75 0 -75 0 0 -225 0 -225 -260 0 -260 0 0 225 0
225 -80 0 -80 0 0 -540z"/>
<path d="M23500 2650 l0 -540 300 0 300 0 0 70 0 70 -225 0 -225 0 0 175 0
175 205 0 205 0 0 70 0 70 -205 0 -205 0 0 155 0 155 225 0 225 0 0 70 0 70
-300 0 -300 0 0 -540z"/>
<path d="M24701 3168 c-5 -13 -107 -250 -226 -528 -119 -278 -219 -511 -222
-518 -4 -10 13 -12 78 -10 l83 3 52 130 52 130 269 3 270 2 53 -135 53 -135
85 0 c75 0 83 2 78 17 -4 9 -107 252 -229 540 l-222 523 -83 0 c-76 0 -83 -2
-91 -22z m197 -395 c56 -138 102 -254 102 -257 0 -3 -96 -6 -214 -6 l-215 0
107 264 c59 146 110 262 113 258 3 -4 52 -120 107 -259z"/>
<path d="M25500 2650 l0 -540 305 0 305 0 0 70 0 70 -225 0 -225 0 0 470 0
470 -80 0 -80 0 0 -540z"/>
<path d="M26092 3123 l3 -68 168 -3 167 -2 0 -470 0 -470 80 0 80 0 0 470 0
470 165 0 165 0 0 70 0 70 -415 0 -416 0 3 -67z"/>
<path d="M27100 2650 l0 -540 80 0 80 0 0 245 0 245 260 0 260 0 0 -245 0
-245 75 0 75 0 0 540 0 540 -75 0 -75 0 0 -225 0 -225 -260 0 -260 0 0 225 0
225 -80 0 -80 0 0 -540z"/>
<path d="M29717 3158 c-8 -18 -112 -259 -231 -536 -119 -276 -216 -505 -216
-508 0 -3 36 -4 81 -2 l81 3 52 130 53 130 269 3 269 2 53 -135 54 -135 85 0
c46 0 83 4 81 9 -1 5 -104 248 -228 540 l-225 531 -82 0 -83 0 -13 -32z m204
-395 c54 -135 97 -248 95 -250 -1 -2 -98 -2 -213 -1 l-211 3 106 262 c74 184
109 258 115 248 4 -8 53 -126 108 -262z"/>
<path d="M31650 2650 l0 -540 305 0 306 0 -3 68 -3 67 -227 3 -228 2 0 175 0
175 208 2 207 3 0 65 0 65 -207 3 -208 2 0 155 0 155 228 2 227 3 3 68 3 67
-306 0 -305 0 0 -540z"/>
<path d="M32520 2650 l0 -540 80 0 80 0 0 540 0 540 -80 0 -80 0 0 -540z"/>
<path d="M32970 2650 l0 -540 75 0 75 0 0 443 c1 350 3 439 13 426 7 -9 118
-208 247 -442 l235 -426 103 -1 102 0 0 540 0 540 -80 0 -80 0 0 -432 c0 -248
-4 -428 -9 -423 -5 6 -113 200 -241 433 l-232 422 -104 0 -104 0 0 -540z"/>
<path d="M28220 2276 c0 -2 -20 -82 -45 -178 -25 -95 -45 -179 -45 -186 0 -10
17 -12 68 -10 l67 3 62 175 c34 96 62 181 62 188 1 9 -22 12 -84 12 -47 0 -85
-2 -85 -4z"/>
<path d="M3910 1944 c-173 -150 -318 -270 -321 -266 -3 4 -18 79 -33 167 -15
88 -29 168 -32 177 -4 14 -39 0 -212 -83 -114 -55 -211 -104 -216 -109 -5 -5
1 -97 13 -211 12 -111 20 -203 19 -204 -2 -1 -158 -39 -348 -84 -190 -45 -355
-87 -368 -94 -22 -12 -185 -289 -173 -295 3 -1 155 31 336 72 182 40 332 71
335 69 2 -2 0 -7 -6 -11 -48 -31 -643 -557 -637 -562 4 -4 63 -26 131 -48
l123 -41 332 289 c261 227 333 286 338 272 3 -9 19 -96 34 -194 l29 -176 220
110 c122 61 222 111 223 112 1 1 -9 96 -22 211 -14 115 -24 210 -22 211 1 1
164 41 362 89 198 48 361 88 362 89 7 6 153 290 150 292 -1 2 -150 -30 -330
-70 -180 -40 -326 -69 -325 -65 2 5 136 124 298 264 162 141 301 263 309 270
13 13 -12 23 -204 78 l-50 14 -315 -273z"/>
<path d="M7371 2080 c-107 -16 -189 -34 -196 -42 -7 -7 -88 -130 -180 -273
-92 -143 -170 -263 -174 -268 -4 -4 -92 34 -195 83 l-187 91 -37 -28 c-118
-88 -332 -257 -332 -263 0 -3 79 -51 176 -106 97 -55 175 -104 174 -109 -1 -6
-173 -97 -382 -204 l-381 -194 7 -71 c3 -39 9 -92 12 -117 l6 -47 366 179
c201 99 367 177 369 175 3 -2 -78 -132 -180 -288 -101 -156 -181 -284 -176
-286 12 -5 359 47 384 57 11 5 101 136 200 291 99 155 185 284 191 287 7 2 94
-37 194 -87 100 -50 187 -89 194 -87 9 4 333 262 359 287 5 4 -75 54 -177 111
-102 57 -186 107 -186 111 0 5 167 91 370 193 204 102 373 192 376 200 6 15
-21 203 -30 212 -3 3 -164 -71 -357 -166 -194 -94 -353 -170 -355 -168 -2 2
75 126 171 276 96 149 175 274 175 277 0 2 -3 4 -7 3 -5 -1 -91 -14 -192 -29z"/>
<path d="M32645 1384 c-215 -33 -364 -170 -422 -386 -23 -85 -22 -260 1 -347
54 -199 184 -326 374 -367 382 -80 675 186 647 589 -17 249 -148 431 -355 491
-57 17 -193 28 -245 20z m230 -165 c129 -61 205 -205 205 -389 0 -184 -69
-322 -194 -388 -46 -25 -61 -27 -161 -27 -96 0 -116 3 -153 23 -67 36 -119 88
-151 153 -41 82 -54 156 -48 269 9 190 93 322 237 374 67 24 199 17 265 -15z"/>
<path d="M13175 863 c-120 -280 -224 -523 -232 -541 l-14 -33 82 3 82 3 55
133 54 132 267 0 266 0 54 -135 55 -135 84 0 c50 0 82 4 80 10 -1 5 -104 248
-228 540 l-225 530 -81 0 -82 0 -217 -507z m398 102 c53 -132 99 -248 103
-257 6 -17 -8 -18 -209 -18 l-215 0 107 264 c58 146 109 261 112 258 3 -4 49
-115 102 -247z"/>
<path d="M14187 1363 c-4 -3 -7 -246 -7 -540 l0 -533 80 0 80 0 2 443 3 442
244 -442 245 -443 98 0 98 0 0 540 0 540 -75 0 -75 0 -2 -435 -3 -436 -240
436 -240 435 -101 0 c-55 0 -104 -3 -107 -7z"/>
<path d="M15290 831 l0 -541 205 0 c145 0 229 5 283 15 260 52 412 245 412
525 0 244 -132 427 -365 506 -76 26 -92 28 -307 32 l-228 4 0 -541z m512 367
c163 -76 244 -239 218 -440 -21 -172 -104 -274 -252 -314 -29 -7 -113 -17
-185 -20 l-133 -7 0 407 0 408 148 -4 c135 -3 152 -5 204 -30z"/>
<path d="M17060 830 l0 -540 80 0 80 0 0 241 0 241 93 -4 c140 -6 136 -2 263
-286 l83 -187 90 -3 90 -3 -103 215 c-126 261 -137 281 -176 305 l-32 19 50
16 c68 23 124 74 152 138 42 97 16 231 -57 300 -69 66 -181 88 -444 88 l-169
0 0 -540z m445 374 c83 -42 107 -155 47 -226 -42 -49 -96 -68 -221 -75 l-111
-6 0 167 0 168 123 -4 c99 -2 130 -7 162 -24z"/>
<path d="M18020 830 l0 -540 305 0 305 0 0 65 0 65 -225 0 -225 0 0 180 0 180
205 0 205 0 0 70 0 70 -205 0 -205 0 0 155 0 155 225 0 225 0 0 70 0 70 -305
0 -305 0 0 -540z"/>
<path d="M18774 1356 c-3 -7 -4 -38 -2 -67 l3 -54 168 -3 167 -2 0 -470 0
-470 80 0 80 0 0 470 0 470 168 2 167 3 0 65 0 65 -413 3 c-343 2 -413 0 -418
-12z"/>
<path d="M19780 830 l0 -540 75 0 75 0 0 540 0 540 -75 0 -75 0 0 -540z"/>
<path d="M20217 1363 c-4 -3 -7 -246 -7 -540 l0 -533 80 0 80 0 0 241 0 241
93 -4 c143 -6 132 5 263 -288 l83 -185 90 -3 90 -3 -95 198 c-53 109 -99 205
-102 213 -15 39 -56 93 -83 109 l-31 19 50 16 c68 23 124 74 152 138 18 43 22
65 18 123 -10 152 -93 230 -271 254 -85 12 -400 15 -410 4z m406 -145 c149
-45 151 -231 4 -293 -22 -9 -84 -18 -147 -22 l-110 -6 0 166 0 167 106 0 c59
0 125 -5 147 -12z"/>
<path d="M21180 830 l0 -540 305 0 305 0 0 65 0 65 -225 0 -225 0 0 180 0 180
205 0 205 0 0 70 0 70 -205 0 -205 0 0 155 0 155 225 0 225 0 0 70 0 70 -305
0 -305 0 0 -540z"/>
<path d="M22060 830 l0 -540 75 0 75 0 2 466 3 467 179 -467 179 -466 77 0 77
0 179 467 179 468 3 -468 2 -467 75 0 75 0 0 540 0 541 -127 -3 -127 -3 -165
-442 c-90 -244 -167 -440 -170 -437 -3 3 -81 202 -172 442 l-166 437 -126 3
-127 3 0 -541z"/>
<path d="M23530 830 l0 -540 305 0 305 0 0 65 0 65 -225 0 -225 0 0 180 0 180
205 0 205 0 0 70 0 70 -205 0 -205 0 0 155 0 155 225 0 225 0 0 70 0 70 -305
0 -305 0 0 -540z"/>
<path d="M24400 830 l0 -540 80 0 80 0 0 443 0 442 244 -440 243 -440 102 -3
101 -3 0 541 0 540 -80 0 -80 0 -2 -430 -3 -430 -235 428 -236 427 -107 3
-107 3 0 -541z"/>
<path d="M25420 1300 l0 -70 170 0 170 0 0 -470 0 -470 75 0 75 0 0 470 0 470
170 0 170 0 0 70 0 70 -415 0 -415 0 0 -70z"/>
<path d="M27057 1363 c-4 -3 -7 -246 -7 -540 l0 -533 80 0 80 0 0 540 0 540
-73 0 c-41 0 -77 -3 -80 -7z"/>
<path d="M27500 830 l0 -540 80 0 80 0 0 443 0 442 244 -440 244 -440 101 -3
101 -3 0 541 0 541 -77 -3 -78 -3 -5 -427 -5 -427 -235 427 -235 427 -108 3
-107 3 0 -541z"/>
<path d="M29280 830 l0 -540 305 0 305 0 0 65 0 65 -225 0 -225 0 0 180 0 180
205 0 205 0 0 70 0 70 -205 0 -205 0 0 155 0 155 225 0 225 0 0 70 0 70 -305
0 -305 0 0 -540z"/>
<path d="M30160 1005 c0 -229 4 -384 11 -417 45 -215 213 -333 448 -315 116 9
184 38 257 111 111 111 124 177 124 644 l0 342 -79 0 -80 0 -3 -382 c-3 -375
-3 -384 -26 -433 -47 -102 -113 -144 -226 -145 -38 0 -87 6 -110 12 -55 17
-109 73 -137 144 -23 57 -23 69 -27 432 l-4 372 -74 0 -74 0 0 -365z"/>
<path d="M31280 831 l0 -541 80 0 80 0 0 240 0 240 69 0 c95 0 128 -8 160 -41
17 -16 65 -110 118 -231 l91 -203 86 -3 c65 -2 86 0 85 10 0 7 -53 119 -117
248 -95 190 -123 239 -150 257 l-32 21 48 16 c68 23 125 74 152 138 40 93 19
218 -49 291 -65 71 -137 88 -403 94 l-218 5 0 -541z m412 387 c113 -34 152
-173 71 -250 -45 -43 -95 -58 -213 -65 l-110 -6 0 166 0 167 106 0 c59 0 124
-5 146 -12z"/>
<path d="M33477 1363 c-4 -3 -7 -246 -7 -540 l0 -533 80 0 80 0 0 215 0 215
108 0 c221 0 339 56 400 190 48 103 30 259 -38 342 -39 47 -136 94 -220 108
-72 11 -393 14 -403 3z m374 -143 c50 -14 99 -49 127 -90 33 -49 28 -142 -10
-192 -44 -58 -86 -72 -220 -76 l-118 -4 0 186 0 186 93 0 c50 0 108 -5 128
-10z"/>
<path d="M34370 830 l0 -540 305 0 305 0 0 65 0 65 -225 0 -225 0 0 180 0 180
205 0 205 0 0 70 0 70 -205 0 -205 0 0 155 0 155 225 0 225 0 0 70 0 70 -305
0 -305 0 0 -540z"/>
</g>
</svg>
