<?xml version="1.0" standalone="no"?>
<!DOCTYPE svg PUBLIC "-//W3C//DTD SVG 20010904//EN"
 "http://www.w3.org/TR/2001/REC-SVG-20010904/DTD/svg10.dtd">
<svg version="1.0" xmlns="http://www.w3.org/2000/svg"
 width="3508.000000pt" height="1148.000000pt" viewBox="0 0 3508.000000 1148.000000"
 preserveAspectRatio="xMidYMid meet">

<g transform="translate(0.000000,1148.000000) scale(0.100000,-0.100000)"
fill="#000000" stroke="none">
<path d="M10680 11252 l-65 -4 -85 -103 c-47 -57 -90 -104 -95 -105 -6 0 -43
20 -83 45 -40 25 -76 45 -81 45 -7 0 -157 -84 -169 -95 -1 -1 31 -26 73 -54
41 -29 75 -55 75 -59 0 -4 -81 -34 -180 -67 -194 -64 -187 -59 -171 -126 l6
-26 165 53 c90 29 166 51 168 49 4 -3 -44 -63 -166 -207 -14 -17 -10 -18 74
-18 l89 0 95 115 c52 63 96 115 98 115 3 0 42 -23 87 -50 l82 -51 81 48 c45
26 82 51 82 55 0 4 -34 30 -76 59 -42 28 -74 52 -72 55 2 2 80 30 173 62 l170
59 3 47 c2 25 0 46 -3 46 -4 0 -79 -23 -166 -51 -88 -28 -162 -49 -164 -47 -2
2 37 52 86 111 84 100 88 107 62 105 -15 -1 -57 -4 -93 -6z"/>
<path d="M12288 10920 c-76 -55 -139 -100 -142 -100 -2 0 -11 38 -21 84 l-18
84 -91 -31 -91 -32 4 -60 c2 -33 5 -76 5 -95 l1 -35 -158 -16 c-87 -9 -162
-20 -166 -25 -5 -5 -21 -31 -37 -58 l-28 -49 105 7 c57 4 126 9 153 13 32 4
47 2 43 -4 -4 -6 -67 -55 -142 -109 -74 -54 -134 -99 -132 -100 1 -1 28 -13
59 -27 l57 -25 142 104 c78 57 144 104 148 104 4 0 15 -38 25 -84 l19 -85 96
35 c53 19 96 34 97 34 1 0 -5 33 -12 73 -7 39 -13 82 -13 93 -1 25 4 26 204
45 l121 11 33 61 33 60 -58 -6 c-105 -12 -244 -20 -244 -15 0 2 61 49 136 104
l135 99 -42 17 c-79 34 -74 36 -221 -72z"/>
<path d="M8501 10971 l-104 -27 -33 -98 c-19 -55 -35 -101 -38 -103 -2 -2 -63
1 -135 8 l-131 11 -69 -60 -69 -60 46 -5 c26 -4 81 -9 122 -13 41 -4 80 -9 87
-13 7 -4 -65 -48 -162 -101 l-174 -94 37 -32 37 -32 155 81 c85 44 159 84 165
89 23 20 21 1 -10 -94 -19 -57 -32 -104 -31 -105 1 -2 50 9 109 24 l106 28 31
100 c18 55 35 103 38 106 4 3 67 1 139 -5 l133 -11 60 53 c33 30 60 57 60 61
0 4 -55 13 -122 20 -116 12 -137 16 -127 25 2 2 77 43 167 91 l163 87 -22 24
c-12 13 -31 26 -41 30 -12 3 -73 -23 -174 -76 -86 -45 -158 -79 -161 -76 -3 2
9 46 26 97 17 51 30 93 28 94 -1 1 -49 -10 -106 -24z"/>
<path d="M13188 10248 l-66 -10 -47 -107 c-26 -58 -51 -110 -56 -115 -5 -6
-57 1 -133 19 l-124 28 -29 -21 c-43 -31 -106 -99 -96 -104 4 -3 57 -18 116
-33 59 -16 104 -32 100 -36 -4 -4 -82 -42 -173 -85 -91 -42 -166 -78 -168 -80
-2 -1 8 -25 22 -52 l26 -51 176 85 c97 47 178 83 179 82 2 -2 -8 -29 -21 -61
-13 -31 -33 -80 -45 -109 l-20 -51 66 7 c126 13 116 5 171 133 27 63 52 117
55 119 4 2 65 -10 135 -26 l128 -31 64 64 63 64 -108 28 c-59 15 -112 31 -116
35 -4 4 69 43 163 88 l171 82 -27 49 -28 48 -155 -74 c-153 -74 -191 -90 -191
-81 0 3 18 49 40 103 22 54 40 100 40 102 0 5 -36 2 -112 -9z"/>
<path d="M6434 10089 l-138 -110 -38 75 c-21 42 -43 76 -49 76 -9 0 -205 -87
-219 -97 -2 -2 13 -38 33 -80 21 -41 36 -78 33 -80 -3 -3 -83 -22 -178 -42
l-173 -36 -39 -57 c-22 -32 -38 -59 -35 -61 2 -2 81 11 174 29 94 19 174 32
180 31 5 -2 -52 -54 -128 -117 -75 -62 -137 -117 -137 -121 0 -5 15 -9 33 -9
17 0 48 -3 67 -6 34 -6 44 1 179 111 108 86 146 113 153 103 5 -7 24 -43 43
-80 l35 -67 107 50 c60 28 111 53 115 57 4 4 -11 42 -33 85 -29 56 -37 78 -27
82 7 2 83 18 168 36 85 17 164 37 175 44 11 7 33 36 48 64 l29 52 -24 -6 c-93
-21 -333 -64 -337 -60 -2 3 3 11 12 18 8 6 70 57 136 112 l120 100 -37 7 c-95
18 -100 16 -248 -103z"/>
<path d="M4515 9085 c-5 -2 -43 -9 -83 -15 l-73 -12 -95 -123 -96 -123 -62 23
c-33 13 -84 32 -112 44 l-52 20 -108 -74 -108 -75 35 -13 c19 -8 67 -27 107
-42 40 -16 69 -32 65 -36 -4 -4 -96 -43 -203 -87 l-195 -80 -6 -54 c-3 -29 -5
-54 -4 -55 0 -1 97 36 215 82 117 47 215 83 217 81 2 -1 -40 -60 -92 -129 -64
-85 -90 -127 -79 -127 9 0 56 7 105 16 l88 16 96 124 c53 68 100 124 105 124
5 0 57 -19 116 -41 l106 -41 102 70 c55 38 101 73 101 78 0 4 -46 26 -103 48
-57 21 -99 43 -95 47 4 4 95 42 201 85 l192 78 0 53 0 52 -63 -24 c-35 -13
-126 -48 -202 -79 -77 -31 -143 -56 -148 -56 -9 0 16 37 120 178 52 69 53 83
8 67z"/>
<path d="M8030 8750 c-590 -65 -1003 -347 -1158 -790 -57 -164 -67 -234 -66
-470 0 -200 2 -222 27 -315 35 -131 110 -280 191 -380 160 -197 381 -331 871
-526 461 -183 609 -279 687 -445 79 -169 43 -368 -91 -501 -115 -114 -270
-183 -476 -213 -263 -37 -672 51 -1042 225 l-111 53 -6 -47 c-6 -47 -64 -638
-68 -701 l-3 -35 70 -18 c317 -79 590 -123 873 -138 726 -38 1291 145 1588
515 302 377 324 1004 49 1391 -58 82 -203 218 -300 283 -158 105 -326 182
-685 317 -376 142 -501 207 -603 314 -72 75 -98 134 -104 232 -15 230 93 426
287 521 111 54 176 69 340 75 244 9 552 -37 800 -121 69 -23 131 -44 139 -47
12 -3 22 57 53 331 21 184 37 339 34 345 -10 27 -362 102 -616 130 -172 19
-560 28 -680 15z"/>
<path d="M10177 8683 c-4 -3 -7 -942 -7 -2085 l0 -2078 420 0 420 0 0 910 0
910 750 0 750 0 0 -910 0 -910 415 0 415 0 0 2085 0 2085 -415 0 -415 0 0
-845 0 -845 -750 0 -750 0 0 845 0 845 -413 0 c-228 0 -417 -3 -420 -7z"/>
<path d="M14686 6638 c-440 -1129 -806 -2068 -813 -2085 l-13 -33 433 0 434 0
180 473 180 472 749 2 749 3 176 -473 177 -472 461 -3 c254 -1 461 1 461 5 0
5 -366 942 -814 2083 l-815 2075 -373 3 -373 2 -799 -2052z m1411 305 l251
-808 -506 -3 c-278 -1 -507 -1 -508 1 -2 2 109 364 246 806 138 442 250 805
250 807 0 2 4 4 8 4 4 0 121 -363 259 -807z"/>
<path d="M18390 6605 l0 -2085 420 0 420 0 0 866 0 866 218 -4 c182 -4 227 -9
279 -25 131 -43 210 -113 281 -250 22 -43 158 -384 302 -758 144 -374 265
-683 269 -688 4 -4 214 -6 468 -5 l460 3 -336 820 c-185 451 -358 860 -384
908 -88 166 -202 279 -310 308 -80 21 -86 26 -42 34 228 40 436 150 578 306
150 164 231 368 244 609 11 219 -27 420 -112 596 -151 311 -455 484 -965 548
-212 27 -490 36 -1152 36 l-638 0 0 -2085z m1385 1415 c421 -40 609 -203 610
-530 0 -124 -15 -191 -63 -283 -81 -156 -255 -250 -531 -286 -46 -6 -191 -11
-323 -11 l-238 0 0 560 0 560 218 0 c119 0 267 -5 327 -10z"/>
<path d="M22070 6605 l0 -2085 1305 0 1305 0 0 325 0 325 -885 0 -885 0 0 585
0 585 813 2 812 3 3 328 2 327 -815 0 -815 0 0 515 0 515 880 0 880 0 0 330 0
330 -1300 0 -1300 0 0 -2085z"/>
<path d="M2601 7400 c-113 -72 -206 -128 -208 -126 -2 2 3 53 10 115 10 78 10
111 3 108 -6 -3 -63 -26 -127 -51 l-116 -47 -18 -107 c-10 -59 -20 -110 -24
-114 -3 -4 -90 -14 -193 -22 l-186 -16 -55 -57 c-30 -32 -65 -70 -77 -85 l-21
-28 43 1 c24 0 105 6 181 13 75 6 137 9 137 6 0 -3 -90 -63 -200 -134 l-200
-129 37 -33 c21 -18 45 -33 53 -33 8 0 110 60 225 134 116 73 211 128 213 122
1 -7 -4 -59 -12 -117 -7 -58 -13 -106 -12 -107 2 -2 59 20 129 48 l126 51 10
51 c6 29 16 82 22 120 7 44 16 67 25 67 7 0 93 7 191 15 l178 16 43 47 c23 26
56 64 73 85 l31 37 -44 -1 c-23 0 -105 -6 -180 -13 -76 -6 -138 -9 -138 -6 0
3 33 26 73 52 39 25 127 82 194 126 l122 79 -44 32 c-24 17 -47 31 -52 30 -4
0 -100 -58 -212 -129z"/>
<path d="M1304 5585 l-179 -166 -25 28 c-14 16 -47 54 -75 85 l-50 56 -127
-77 c-70 -42 -127 -79 -128 -82 0 -3 27 -41 59 -85 33 -43 57 -81 55 -84 -3
-3 -114 -41 -247 -85 l-241 -80 -35 -78 c-18 -42 -32 -80 -29 -82 2 -3 110 29
238 70 128 41 235 74 237 72 2 -2 -72 -76 -163 -163 l-167 -159 92 -9 91 -8
123 114 c67 63 151 141 185 173 l64 59 51 -59 c29 -33 63 -72 77 -87 l25 -28
131 82 131 82 -66 85 c-49 63 -62 86 -51 90 8 3 118 39 243 81 l229 75 33 83
c18 45 30 82 27 82 -4 0 -109 -33 -234 -74 -126 -40 -228 -70 -228 -66 0 5 70
74 155 156 85 81 154 148 153 149 -2 1 -42 5 -89 9 l-86 7 -179 -166z"/>
<path d="M1244 4052 l-131 -34 -96 -177 -97 -177 -185 19 -186 18 -108 -103
c-127 -120 -135 -106 82 -133 75 -10 137 -21 137 -24 0 -3 -121 -74 -268 -157
-296 -168 -280 -152 -240 -243 l23 -51 270 154 c149 85 271 151 273 146 2 -5
-33 -79 -78 -165 -45 -86 -80 -158 -78 -160 4 -4 270 63 274 68 1 1 43 79 93
172 50 94 95 176 99 182 6 10 47 9 193 -6 l184 -19 108 106 107 107 -160 21
c-89 12 -163 24 -166 26 -2 3 107 69 244 147 137 78 256 147 265 154 14 11 12
19 -16 74 l-32 62 -260 -148 c-143 -82 -261 -145 -263 -141 -2 5 31 77 73 160
42 84 75 153 73 155 -2 1 -62 -14 -134 -33z"/>
<path d="M7537 3760 c-77 -32 -142 -61 -145 -65 -5 -5 -30 -244 -32 -301 0
-21 -6 -22 -157 -28 -87 -4 -179 -9 -205 -12 -51 -6 -41 4 -202 -203 -9 -12
19 -13 197 -7 132 4 207 3 203 -3 -3 -5 -102 -84 -219 -177 -116 -92 -216
-170 -220 -174 -7 -6 114 -90 128 -90 4 0 321 243 423 323 7 5 14 8 17 5 2 -2
-2 -76 -10 -163 -8 -87 -14 -159 -12 -161 2 -2 299 125 304 130 2 2 8 68 14
147 6 79 12 154 15 165 4 20 11 22 151 28 271 12 251 6 313 89 29 40 65 87 79
106 l25 33 -207 -7 c-114 -4 -207 -5 -207 -2 0 3 97 83 216 177 l216 172 -61
39 c-34 21 -66 39 -70 39 -5 0 -100 -70 -211 -155 -112 -85 -206 -155 -211
-155 -5 0 -6 26 -3 58 13 135 19 252 14 251 -3 0 -67 -27 -143 -59z"/>
<path d="M9473 3705 c-113 -31 -190 -91 -234 -183 -19 -39 -23 -63 -23 -142 0
-84 3 -101 26 -146 40 -76 104 -125 270 -210 171 -86 219 -126 237 -198 23
-93 -23 -180 -118 -224 -77 -36 -182 -35 -299 3 -46 14 -86 25 -88 22 -2 -2
-7 -40 -11 -84 l-6 -80 59 -16 c145 -40 247 -43 379 -10 83 20 149 59 200 115
59 66 80 130 79 243 -1 173 -66 257 -287 370 -176 90 -215 118 -238 169 -24
53 -24 80 2 132 15 33 32 49 72 68 66 34 192 36 288 6 35 -10 69 -20 74 -22 9
-1 37 152 30 160 -2 2 -27 10 -56 18 -79 22 -291 28 -356 9z"/>
<path d="M17386 3704 c-205 -49 -365 -213 -420 -431 -24 -91 -31 -227 -17
-323 40 -272 190 -451 431 -515 86 -23 253 -24 340 -1 221 56 377 223 426 456
25 119 15 320 -21 429 -88 261 -293 403 -579 400 -56 0 -128 -7 -160 -15z
m346 -181 c37 -19 83 -52 106 -77 178 -193 175 -577 -6 -763 -143 -148 -425
-144 -566 7 -140 149 -174 430 -77 635 38 83 74 127 137 171 74 52 123 64 239
61 91 -2 107 -5 167 -34z"/>
<path d="M30164 3706 c-308 -70 -504 -317 -504 -634 0 -317 176 -556 469 -634
132 -35 379 -27 539 18 l52 15 0 329 0 330 -225 0 -225 0 0 -75 0 -75 135 0
135 0 0 -189 c0 -113 -4 -192 -10 -196 -5 -3 -50 -11 -100 -17 -312 -36 -544
142 -575 442 -20 195 80 396 236 480 87 46 149 60 269 60 117 0 206 -18 279
-55 l49 -25 7 63 c13 116 11 119 -80 146 -102 30 -353 39 -451 17z"/>
<path d="M34385 3705 c-133 -29 -272 -107 -350 -197 -179 -207 -204 -560 -57
-802 79 -132 224 -233 387 -272 128 -31 372 -21 523 22 l52 15 0 329 0 330
-225 0 -225 0 0 -75 0 -75 135 0 135 0 -2 -192 -3 -192 -30 -9 c-16 -5 -84 -9
-150 -9 -134 -1 -196 15 -286 73 -250 160 -289 561 -75 775 96 95 201 134 366
134 118 0 206 -18 280 -55 28 -14 50 -22 51 -18 0 5 4 45 7 90 l7 83 -45 15
c-135 45 -364 59 -495 30z"/>
<path d="M10222 3248 c3 -439 4 -455 26 -520 45 -134 143 -239 261 -281 116
-42 286 -42 402 0 118 42 216 147 261 281 22 65 23 81 26 520 l3 452 -90 0
-90 0 -3 -437 c-3 -397 -6 -443 -22 -488 -44 -116 -112 -177 -224 -196 -122
-22 -247 22 -303 106 -62 95 -63 99 -67 578 l-3 437 -90 0 -90 0 3 -452z"/>
<path d="M11540 3071 l0 -631 90 0 90 0 0 280 0 280 83 0 c105 0 154 -14 192
-54 19 -20 70 -122 134 -269 l105 -237 103 0 103 0 -24 53 c-77 169 -223 468
-247 503 -15 23 -43 48 -61 57 l-32 16 29 7 c82 19 169 86 208 159 18 33 22
57 22 136 0 87 -3 101 -30 155 -23 45 -44 68 -85 96 -90 61 -141 70 -427 75
l-253 5 0 -631z m506 442 c117 -62 138 -202 45 -286 -56 -50 -121 -67 -258
-67 l-113 0 0 191 0 191 143 -4 c122 -3 148 -6 183 -25z"/>
<path d="M12677 3318 c79 -211 186 -493 237 -628 l92 -245 116 -3 c87 -2 117
1 121 10 21 53 477 1241 477 1244 0 2 -42 4 -94 4 -66 0 -95 -4 -99 -12 -2 -7
-91 -251 -197 -543 -106 -291 -195 -533 -199 -537 -3 -4 -94 240 -201 542
l-195 550 -101 0 -102 0 145 -382z"/>
<path d="M13920 3070 l0 -630 360 0 361 0 -3 78 -3 77 -262 3 -263 2 0 205 0
205 240 0 240 0 0 80 0 80 -240 0 -240 0 0 185 0 185 263 2 262 3 3 78 3 77
-361 0 -360 0 0 -630z"/>
<path d="M14819 3683 c5 -10 116 -175 245 -367 l236 -350 0 -263 0 -263 90 0
90 0 0 261 0 261 245 363 c135 200 245 366 245 369 0 3 -46 6 -103 6 l-103 0
-179 -276 c-99 -152 -183 -278 -187 -280 -4 -3 -92 121 -194 276 l-187 280
-104 0 c-96 0 -103 -1 -94 -17z"/>
<path d="M18430 3070 l0 -630 90 0 90 0 0 285 0 285 235 0 235 0 0 80 0 80
-235 0 -235 0 0 185 0 185 248 2 247 3 3 78 3 77 -341 0 -340 0 0 -630z"/>
<path d="M20210 3070 l0 -630 90 0 90 0 0 285 0 285 305 0 305 0 0 -285 0
-285 90 0 90 0 0 630 0 630 -90 0 -90 0 0 -265 0 -265 -305 0 -305 0 0 265 0
265 -90 0 -90 0 0 -630z"/>
<path d="M21520 3070 l0 -630 355 0 355 0 0 80 0 80 -265 0 -265 0 0 205 0
205 243 2 242 3 3 78 3 77 -246 0 -245 0 0 185 0 185 265 0 265 0 0 80 0 80
-355 0 -355 0 0 -630z"/>
<path d="M22683 3088 c-144 -337 -265 -621 -269 -630 -6 -16 3 -18 88 -18 l94
0 61 153 61 152 315 3 314 2 63 -155 63 -155 99 0 c55 0 98 4 96 9 -1 4 -122
288 -267 630 l-264 621 -96 0 -96 0 -262 -612z m482 120 c65 -164 116 -300
113 -303 -3 -3 -116 -4 -251 -3 l-246 3 118 290 c64 160 120 299 124 309 5 11
11 15 16 10 4 -5 61 -143 126 -306z"/>
<path d="M23870 3070 l0 -630 360 0 361 0 -3 78 -3 77 -262 3 -263 2 0 550 0
550 -95 0 -95 0 0 -630z"/>
<path d="M24560 3620 l0 -80 200 0 200 0 0 -550 0 -550 90 0 90 0 0 550 0 550
195 0 195 0 0 80 0 80 -485 0 -485 0 0 -80z"/>
<path d="M25740 3070 l0 -630 95 0 95 0 0 285 0 285 300 0 300 0 0 -285 0
-285 95 0 95 0 0 630 0 630 -95 0 -95 0 0 -265 0 -265 -300 0 -300 0 0 265 0
265 -95 0 -95 0 0 -630z"/>
<path d="M28552 3070 l-270 -631 96 3 96 3 61 150 62 150 315 3 314 2 61 -152
61 -153 101 -3 100 -3 -29 68 c-16 37 -136 321 -267 630 l-238 563 -96 0 -97
0 -270 -630z m486 148 c67 -167 122 -306 122 -310 0 -5 -113 -8 -251 -8 -154
0 -249 4 -247 9 24 71 244 611 248 611 3 0 61 -136 128 -302z"/>
<path d="M31070 3070 l0 -630 355 0 355 0 0 80 0 80 -265 0 -265 0 0 205 0
205 240 0 240 0 0 80 0 80 -240 0 -240 0 0 185 0 185 265 0 265 0 0 80 0 80
-355 0 -355 0 0 -630z"/>
<path d="M32090 3070 l0 -630 90 0 90 0 0 630 0 630 -90 0 -90 0 0 -630z"/>
<path d="M32610 3070 l0 -630 90 0 90 0 0 517 c0 366 3 514 11 506 6 -6 136
-237 289 -514 l278 -504 121 -3 121 -3 0 631 0 630 -95 0 -95 0 -2 -504 -3
-504 -276 501 -276 502 -126 3 -127 3 0 -631z"/>
<path d="M2805 2900 c-121 -104 -223 -190 -226 -190 -6 0 -18 57 -46 218 -3
17 -9 32 -14 32 -5 0 -74 -32 -154 -72 -123 -62 -144 -75 -140 -93 7 -34 27
-266 24 -269 -2 -2 -119 -31 -259 -64 -140 -34 -256 -65 -258 -69 -1 -5 -27
-51 -57 -103 -29 -52 -53 -96 -52 -97 1 0 101 21 222 48 121 27 226 48 234 47
8 -2 -85 -90 -207 -195 -123 -106 -224 -196 -225 -199 -3 -9 165 -66 178 -60
5 2 111 92 235 200 124 108 228 196 231 196 3 0 14 -51 23 -112 10 -62 20
-123 23 -135 5 -22 10 -21 143 48 76 39 146 76 155 82 14 11 14 24 -1 155 -9
79 -15 145 -13 146 2 2 110 29 239 60 129 31 243 60 253 64 10 4 42 53 72 108
l55 101 -173 -39 c-94 -21 -200 -44 -235 -52 -35 -8 -62 -11 -60 -7 2 4 93 86
203 181 110 95 208 180 218 190 17 16 14 18 -63 39 -44 12 -86 24 -93 26 -7 3
-111 -80 -232 -185z"/>
<path d="M5217 2990 c-59 -9 -111 -21 -116 -26 -4 -5 -61 -91 -125 -192 -65
-100 -122 -185 -127 -187 -4 -3 -66 23 -136 59 l-128 64 -133 -103 -132 -104
129 -73 c72 -40 131 -75 131 -78 0 -3 -124 -67 -275 -143 l-276 -137 5 -33 c3
-17 8 -53 11 -79 4 -27 8 -48 9 -48 2 0 117 56 257 124 140 68 256 122 258
120 2 -2 -55 -94 -127 -204 -94 -143 -126 -200 -114 -200 38 0 266 40 272 47
4 4 62 96 130 203 68 107 125 197 127 200 2 2 65 -26 139 -63 l136 -68 128
103 c70 57 126 106 124 110 -3 4 -58 37 -124 73 -66 36 -122 70 -125 74 -2 5
114 68 258 141 144 73 264 134 266 136 4 4 -16 144 -22 150 -2 2 -115 -49
-251 -115 -135 -66 -246 -116 -246 -111 0 5 54 93 120 195 137 212 141 194
-43 165z"/>
<path d="M27055 2628 c-13 -36 -105 -407 -105 -422 0 -15 10 -16 78 -14 l77 3
73 205 c39 113 75 213 78 223 5 15 -4 17 -96 17 -71 0 -102 -4 -105 -12z"/>
<path d="M32203 1580 c-217 -39 -375 -181 -450 -405 -24 -73 -27 -94 -27 -235
-1 -173 11 -233 67 -349 38 -77 121 -171 194 -217 28 -19 87 -46 130 -61 69
-24 92 -27 208 -27 97 0 145 4 190 18 202 61 329 191 396 406 20 64 24 96 24
220 0 166 -13 229 -73 350 -65 132 -195 241 -342 285 -66 19 -244 28 -317 15z
m295 -185 c184 -83 287 -338 238 -590 -48 -243 -215 -380 -441 -362 -90 7
-148 28 -209 75 -122 92 -187 271 -172 470 10 139 51 237 135 325 82 86 167
118 302 113 67 -3 99 -9 147 -31z"/>
<path d="M9687 1563 c-9 -16 -537 -1252 -537 -1257 0 -3 42 -6 93 -6 l93 0 65
160 64 160 314 -3 313 -2 62 -155 62 -155 97 -3 c53 -1 97 1 97 6 0 5 -117
285 -261 623 -143 338 -263 620 -266 627 -6 13 -188 18 -196 5z m221 -488
l120 -300 -245 -3 c-135 -1 -248 0 -250 2 -3 3 50 142 118 310 68 168 126 302
130 298 4 -4 61 -142 127 -307z"/>
<path d="M10620 935 l0 -635 90 0 90 0 2 520 3 520 286 -518 286 -517 116 -3
117 -3 0 636 0 635 -90 0 -90 0 -2 -510 -3 -510 -280 510 -280 509 -122 1
-123 0 0 -635z"/>
<path d="M11917 1563 c-4 -3 -7 -290 -7 -636 l0 -629 263 5 c299 5 357 15 482
76 178 88 279 245 305 470 19 171 -12 314 -97 443 -94 144 -257 239 -458 268
-78 11 -478 14 -488 3z m504 -167 c170 -36 290 -151 335 -319 18 -69 18 -228
-1 -300 -16 -61 -53 -138 -83 -173 -39 -45 -116 -94 -180 -115 -53 -17 -101
-22 -229 -26 l-163 -6 0 477 0 476 128 0 c70 0 157 -7 193 -14z"/>
<path d="M13990 936 l0 -636 90 0 90 0 0 280 0 280 105 0 c118 0 150 -10 185
-60 12 -17 68 -135 124 -263 l103 -232 101 -3 c56 -1 102 1 102 5 0 16 -244
520 -269 555 -14 20 -42 46 -61 57 -27 16 -30 21 -15 21 31 0 117 44 157 79
60 52 88 121 88 213 0 132 -52 228 -150 278 -81 41 -154 52 -407 57 l-243 5 0
-636z m449 463 c99 -21 153 -77 158 -166 4 -69 -22 -123 -76 -160 -50 -34 -94
-43 -228 -50 l-123 -6 0 197 0 196 110 0 c60 0 132 -5 159 -11z"/>
<path d="M15110 935 l0 -635 355 0 355 0 0 80 0 80 -262 2 -263 3 0 205 0 205
243 3 242 2 0 80 0 80 -245 0 -245 0 2 183 3 182 263 3 262 2 0 80 0 80 -355
0 -355 0 0 -635z"/>
<path d="M15990 1490 l0 -80 200 0 200 0 0 -555 0 -555 90 0 90 0 0 555 0 555
195 0 195 0 0 80 0 80 -485 0 -485 0 0 -80z"/>
<path d="M17165 1558 c-3 -7 -4 -292 -3 -633 l3 -620 93 -3 92 -3 0 636 0 635
-90 0 c-63 0 -92 -4 -95 -12z"/>
<path d="M17680 936 l0 -636 90 0 90 0 0 280 0 280 108 0 c168 0 159 10 316
-345 l93 -210 101 -3 c56 -1 102 0 102 4 0 12 -232 496 -256 535 -24 39 -78
89 -97 89 -7 1 11 9 40 19 105 36 181 108 204 195 16 58 6 182 -18 236 -24 54
-71 103 -124 130 -80 41 -154 52 -406 57 l-243 5 0 -636z m449 463 c97 -20
152 -77 158 -161 3 -41 -1 -63 -19 -98 -43 -84 -141 -120 -325 -120 l-83 0 0
195 0 195 110 0 c60 0 132 -5 159 -11z"/>
<path d="M18810 935 l0 -635 355 0 355 0 0 80 0 80 -265 0 -265 0 0 210 0 210
245 0 246 0 -3 78 -3 77 -242 3 -243 2 0 185 0 185 265 0 265 0 0 80 0 80
-355 0 -355 0 0 -635z"/>
<path d="M19835 1558 c-3 -7 -4 -292 -3 -633 l3 -620 93 -3 92 -3 0 548 1 548
184 -479 c101 -263 196 -510 211 -547 l26 -69 88 0 88 0 50 128 c27 70 120
314 208 542 l159 415 5 -540 5 -540 90 0 90 0 0 630 0 630 -147 3 c-132 2
-148 1 -156 -15 -5 -10 -94 -247 -198 -526 -176 -474 -190 -507 -201 -480 -6
15 -96 252 -200 525 l-188 498 -148 0 c-109 0 -149 -3 -152 -12z"/>
<path d="M21560 935 l0 -635 355 0 355 0 0 80 0 80 -265 0 -265 0 0 210 0 210
245 0 246 0 -3 78 -3 77 -242 3 -243 2 0 185 0 185 265 0 265 0 0 80 0 80
-355 0 -355 0 0 -635z"/>
<path d="M22580 935 l0 -635 90 0 90 0 0 522 c0 302 4 518 9 513 5 -6 136
-241 291 -523 l283 -513 116 3 116 3 0 630 0 630 -92 3 -93 3 -2 -508 -3 -507
-279 507 -278 507 -124 0 -124 0 0 -635z"/>
<path d="M23777 1563 c-4 -3 -7 -39 -7 -80 l0 -73 200 0 200 0 0 -555 0 -555
90 0 90 0 0 555 0 555 200 0 201 0 -3 78 -3 77 -481 3 c-264 1 -484 -1 -487
-5z"/>
<path d="M25690 935 l0 -635 90 0 90 0 0 635 0 635 -90 0 -90 0 0 -635z"/>
<path d="M26210 935 l0 -635 90 0 90 0 0 522 c0 305 4 518 9 513 5 -6 136
-241 292 -523 l283 -513 116 3 115 3 0 630 0 630 -90 0 -90 0 -5 -504 -5 -504
-278 507 -279 506 -124 0 -124 0 0 -635z"/>
<path d="M28300 935 l0 -635 355 0 355 0 0 80 0 80 -265 0 -265 0 0 210 0 210
240 0 240 0 0 80 0 80 -240 0 -240 0 0 185 0 185 265 0 265 0 0 80 0 80 -355
0 -355 0 0 -635z"/>
<path d="M29320 1163 c1 -459 7 -519 63 -636 74 -154 200 -232 392 -244 263
-16 441 104 511 342 15 52 18 119 21 503 l4 442 -90 0 -91 0 0 -368 c0 -202
-5 -405 -10 -451 -19 -149 -62 -227 -152 -277 -49 -27 -61 -29 -153 -29 -92 0
-104 2 -154 30 -66 36 -104 86 -133 174 -21 63 -22 87 -26 494 l-4 427 -89 0
-89 0 0 -407z"/>
<path d="M30640 936 l0 -636 90 0 90 0 0 280 0 280 108 0 c89 0 112 -3 140
-20 43 -27 55 -48 173 -312 l102 -228 103 0 103 0 -72 152 c-167 354 -210 431
-250 458 l-38 24 33 12 c148 51 222 148 222 289 -1 129 -47 216 -141 268 -93
50 -148 59 -415 64 l-248 6 0 -637z m449 463 c61 -13 108 -43 139 -89 20 -30
23 -44 20 -97 -4 -70 -23 -103 -78 -141 -51 -34 -105 -45 -230 -46 l-115 -1
-3 193 -2 192 109 0 c61 0 133 -5 160 -11z"/>
<path d="M33210 936 l0 -636 90 0 90 0 0 255 0 255 133 0 c203 0 314 35 402
126 64 65 88 136 88 254 0 74 -5 107 -22 152 -39 102 -128 172 -260 206 -37 9
-135 16 -288 19 l-233 5 0 -636z m425 459 c73 -19 117 -46 153 -93 24 -32 27
-44 27 -118 0 -77 -2 -85 -31 -121 -17 -21 -51 -49 -75 -63 -40 -23 -57 -25
-181 -28 l-138 -4 0 221 0 221 93 0 c51 0 119 -7 152 -15z"/>
<path d="M34260 935 l0 -635 355 0 355 0 0 80 0 80 -265 0 -265 0 0 210 0 210
240 0 240 0 0 80 0 80 -240 0 -240 0 0 185 0 185 265 0 265 0 0 80 0 80 -355
0 -355 0 0 -635z"/>
</g>
</svg>
