<?xml version="1.0" encoding="UTF-8"?>
<svg id="Ebene_2" data-name="Ebene 2" xmlns="http://www.w3.org/2000/svg" width="250.11mm" height="88.84mm" viewBox="0 0 708.98 251.84">
  <g id="Ebene_2-2" data-name="Ebene 2">
    <g>
      <g>
        <path d="M167.77,92.43h19.54c14.4,0,30.43,6.85,30.43,27.55,0,19.3-16.03,27.55-30.43,27.55h-19.54v-55.11ZM185.75,138.98c10.12,0,21.48-4.12,21.48-18.99,0-15.8-11.36-19.15-21.48-19.15h-8.17v38.14h8.17Z" fill="#1d1d1b"/>
        <path d="M225.84,110.18h8.95v6.23h.16c2.02-4.28,5.99-7.32,10.9-7.32.7,0,1.63.08,2.26.23v8.56c-1.25-.31-2.02-.39-2.88-.39-8.41,0-10.04,7.32-10.04,10.04v20h-9.34v-37.36Z" fill="#1d1d1b"/>
        <path d="M288.54,131.82h-28.41c.39,5.29,5.21,9.18,10.66,9.18,4.67,0,7.78-1.87,9.88-4.83l6.23,4.98c-3.66,4.98-8.95,7.47-16.03,7.47-11.52,0-20.08-7.39-20.08-19.54s8.48-20,19.77-20c10.43,0,18.06,6.77,18.06,20.24,0,.86,0,1.63-.08,2.49ZM279.28,125.13c0-4.83-2.72-9.03-8.79-9.03-5.53,0-9.96,3.81-10.35,9.03h19.15Z" fill="#1d1d1b"/>
        <path d="M317,120.14c-1.63-2.18-4.75-4.05-8.17-4.05-2.96,0-5.99,1.09-5.99,4.05s2.88,3.66,8.09,4.9c5.53,1.32,12.06,3.81,12.06,11.13,0,9.11-7.39,12.45-15.57,12.45-5.76,0-11.75-2.18-15.33-6.15l6.15-5.76c2.02,2.65,5.53,4.67,9.57,4.67,2.72,0,5.99-1.09,5.99-4.44,0-3.11-2.88-4.05-8.56-5.37-5.53-1.32-11.05-3.58-11.05-10.59,0-8.33,7.47-11.91,14.87-11.91,5.37,0,10.97,1.87,14.01,5.68l-6.07,5.37Z" fill="#1d1d1b"/>
        <path d="M367.96,147.54h-8.87v-5.6h-.16c-2.57,4.28-7.63,6.69-12.84,6.69-11.36,0-18.37-9.03-18.37-19.93s7.47-19.61,18.14-19.61c6.85,0,10.59,3.42,12.53,5.84h.23v-26.23h9.34v58.84ZM347.95,140.85c6.85,0,10.97-6.15,10.97-11.99s-4.12-12.14-10.97-12.14c-7.24,0-10.74,6.15-10.74,11.99s3.5,12.14,10.74,12.14Z" fill="#1d1d1b"/>
        <path d="M377.84,110.18h8.87v5.99h.16c1.63-3.74,6.07-7.08,11.6-7.08,9.73,0,13.78,7.47,13.78,15.1v23.35h-9.34v-20.7c0-4.44-1.01-9.96-7-9.96s-8.72,5.14-8.72,10.12v20.55h-9.34v-37.36Z" fill="#1d1d1b"/>
        <path d="M457.44,131.82h-28.41c.39,5.29,5.21,9.18,10.66,9.18,4.67,0,7.78-1.87,9.88-4.83l6.23,4.98c-3.66,4.98-8.95,7.47-16.03,7.47-11.52,0-20.08-7.39-20.08-19.54s8.48-20,19.77-20c10.43,0,18.06,6.77,18.06,20.24,0,.86,0,1.63-.08,2.49ZM448.18,125.13c0-4.83-2.72-9.03-8.79-9.03-5.53,0-9.96,3.81-10.35,9.03h19.15Z" fill="#1d1d1b"/>
        <path d="M465.26,110.18h8.95v6.23h.16c2.02-4.28,5.99-7.32,10.9-7.32.7,0,1.63.08,2.26.23v8.56c-1.25-.31-2.02-.39-2.88-.39-8.41,0-10.04,7.32-10.04,10.04v20h-9.34v-37.36Z" fill="#1d1d1b"/>
        <path d="M167.77,178.05h15.33l14.32,39.15h.23l14.17-39.15h15.41v55.11h-9.73v-44.29h-.16l-16.73,44.29h-6.85l-16.5-44.29h-.16v44.29h-9.34v-55.11Z" fill="#1d1d1b"/>
        <path d="M271.92,233.16h-8.87v-5.99h-.16c-1.63,3.74-6.07,7.08-11.6,7.08-9.73,0-13.78-7.47-13.78-15.1v-23.35h9.34v20.7c0,4.44,1.01,9.96,7,9.96s8.72-5.14,8.72-10.12v-20.55h9.34v37.36Z" fill="#1d1d1b"/>
        <path d="M302.75,205.76c-1.63-2.18-4.75-4.05-8.17-4.05-2.96,0-5.99,1.09-5.99,4.05s2.88,3.66,8.09,4.9c5.53,1.32,12.06,3.81,12.06,11.13,0,9.11-7.39,12.45-15.57,12.45-5.76,0-11.75-2.18-15.33-6.15l6.15-5.76c2.02,2.65,5.53,4.67,9.57,4.67,2.72,0,5.99-1.09,5.99-4.44,0-3.11-2.88-4.05-8.56-5.37-5.53-1.32-11.05-3.58-11.05-10.59,0-8.33,7.47-11.91,14.87-11.91,5.37,0,10.97,1.87,14.01,5.68l-6.07,5.37Z" fill="#1d1d1b"/>
        <path d="M320.66,177.5c3.42,0,6.07,2.41,6.07,5.6s-2.65,5.6-6.07,5.6-5.92-2.65-5.92-5.6,2.49-5.6,5.92-5.6ZM316.07,195.79h9.34v37.36h-9.34v-37.36Z" fill="#1d1d1b"/>
        <path d="M335.28,174.31h9.34v37.21h.23l14.17-15.72h11.99l-16.19,16.89,17.2,20.47h-12.38l-14.79-19.15h-.23v19.15h-9.34v-58.84Z" fill="#1d1d1b"/>
        <path d="M380.75,203.27h-7.08v-7.47h7.08v-5.53c0-8.95,3.5-16.89,15.1-16.89,2.02,0,3.35.16,4.75.54l-.62,7.94c-1.01-.31-2.26-.54-3.58-.54-5.37,0-6.3,4.67-6.3,8.41v6.07h8.64v7.47h-8.64v29.89h-9.34v-29.89Z" fill="#1d1d1b"/>
        <path d="M439.03,217.43h-28.41c.39,5.29,5.21,9.18,10.66,9.18,4.67,0,7.78-1.87,9.88-4.83l6.23,4.98c-3.66,4.98-8.95,7.47-16.03,7.47-11.52,0-20.08-7.39-20.08-19.54s8.48-20,19.77-20c10.43,0,18.06,6.77,18.06,20.24,0,.86,0,1.63-.08,2.49ZM429.77,210.74c0-4.83-2.72-9.03-8.79-9.03-5.53,0-9.96,3.81-10.35,9.03h19.15Z" fill="#1d1d1b"/>
        <path d="M467.49,205.76c-1.63-2.18-4.75-4.05-8.17-4.05-2.96,0-5.99,1.09-5.99,4.05s2.88,3.66,8.09,4.9c5.53,1.32,12.06,3.81,12.06,11.13,0,9.11-7.39,12.45-15.57,12.45-5.76,0-11.75-2.18-15.33-6.15l6.15-5.76c2.02,2.65,5.53,4.67,9.57,4.67,2.72,0,5.99-1.09,5.99-4.44,0-3.11-2.88-4.05-8.56-5.37-5.53-1.32-11.05-3.58-11.05-10.59,0-8.33,7.47-11.91,14.87-11.91,5.37,0,10.97,1.87,14.01,5.68l-6.07,5.37Z" fill="#1d1d1b"/>
        <path d="M477.02,203.27v-7.47h6.54v-10.82h9.18v10.82h9.34v7.47h-9.34v17.36c0,3.35.78,5.76,4.9,5.76,1.25,0,2.88-.23,3.97-.78l.31,7.32c-1.63.62-4.12,1.01-6.23,1.01-9.88,0-12.14-6.07-12.14-13.23v-17.43h-6.54Z" fill="#1d1d1b"/>
        <path d="M530.13,205.76c-1.63-2.18-4.75-4.05-8.17-4.05-2.96,0-5.99,1.09-5.99,4.05s2.88,3.66,8.09,4.9c5.53,1.32,12.06,3.81,12.06,11.13,0,9.11-7.39,12.45-15.57,12.45-5.76,0-11.75-2.18-15.33-6.15l6.15-5.76c2.02,2.65,5.53,4.67,9.57,4.67,2.72,0,5.99-1.09,5.99-4.44,0-3.11-2.88-4.05-8.56-5.37-5.53-1.32-11.05-3.58-11.05-10.59,0-8.33,7.47-11.91,14.87-11.91,5.37,0,10.97,1.87,14.01,5.68l-6.07,5.37Z" fill="#1d1d1b"/>
        <path d="M552.39,195.79v5.21h.23c1.87-2.96,6.07-6.3,12.92-6.3,10.66,0,18.14,8.56,18.14,19.61s-7,19.93-18.37,19.93c-5.21,0-9.96-2.33-12.38-6.07h-.16v23.66h-9.34v-56.04h8.95ZM563.44,202.33c-6.85,0-10.97,6.3-10.97,12.14s4.12,11.99,10.97,11.99c7.24,0,10.74-6.3,10.74-12.14s-3.5-11.99-10.74-11.99Z" fill="#1d1d1b"/>
        <path d="M596.05,177.5c3.42,0,6.07,2.41,6.07,5.6s-2.65,5.6-6.07,5.6-5.92-2.65-5.92-5.6,2.49-5.6,5.92-5.6ZM591.46,195.79h9.34v37.36h-9.34v-37.36Z" fill="#1d1d1b"/>
        <path d="M646.02,217.43h-28.41c.39,5.29,5.21,9.18,10.66,9.18,4.67,0,7.78-1.87,9.88-4.83l6.23,4.98c-3.66,4.98-8.95,7.47-16.03,7.47-11.52,0-20.08-7.39-20.08-19.54s8.48-20,19.77-20c10.43,0,18.06,6.77,18.06,20.24,0,.86,0,1.63-.08,2.49ZM636.76,210.74c0-4.83-2.72-9.03-8.79-9.03-5.53,0-9.96,3.81-10.35,9.03h19.15Z" fill="#1d1d1b"/>
        <path d="M654,174.31h9.34v58.84h-9.34v-58.84Z" fill="#1d1d1b"/>
        <path d="M708.9,217.43h-28.41c.39,5.29,5.21,9.18,10.66,9.18,4.67,0,7.78-1.87,9.88-4.83l6.23,4.98c-3.66,4.98-8.95,7.47-16.03,7.47-11.52,0-20.08-7.39-20.08-19.54s8.48-20,19.77-20c10.43,0,18.06,6.77,18.06,20.24,0,.86,0,1.63-.08,2.49ZM699.64,210.74c0-4.83-2.72-9.03-8.79-9.03-5.53,0-9.96,3.81-10.35,9.03h19.15Z" fill="#1d1d1b"/>
      </g>
      <path d="M53.64,15.56c0,1.21.37,2.43,1.24,3.49.74.91,1.41,1.83,1.96,2.74-.05-.48-.08-.96-.09-1.43-.04-3.64,1.74-7.18,5.94-8.48.85-.27,1.57-.41,2.23-.42l-.27-1.07c-.51-2.01-1.02-4.01-1.54-6.02-.51,2.01-1.02,4.02-1.53,6.03l-.28,1.08-.99-.52c-.82-.43-1.57-.6-2.24-.6-2.46,0-4.43,2.46-4.43,5.22M63.23,13.55c-3.42,1.12-4.67,3.63-4.71,6.79-.02,1.68.39,3.49,1.1,5.21,3.55-4.29,6.43-9.19,6.33-11.37-.13-.87-.04-.85-.98-.97-.41,0-1,.1-1.75.34M51.35,31.91c-2,.28-2.02.63-2.07,1.12-.03.43.25,1.13.69,1.95.26-1.02,1.07-1.9,2.25-2.6.39-.22.79-.48,1.19-.77-.63.15-1.32.25-2.07.3M53.14,33.9c-1.21.74-1.49,1.33-1.49,1.79-.2,1.13,2.36,3.32,6.24,5.37,1.37-.88,2.81-1.71,4.22-2.48,2.43-1.29,4.85-2.39,6.88-3.25-.72-.13-1.52-.29-2.43-.51-2.96-.74-5.57-3.13-7.35-6.13-2,2.13-4.12,3.98-6.07,5.2M54.1,42.68c.02.16.02.32.02.47,0,.26-.01.51-.04.75.69-.6,1.43-1.18,2.21-1.74-1.08-.58-2.07-1.17-2.93-1.77.39.76.68,1.52.75,2.29M60.44,42.3c5.22,2.44,11.72,4.77,16.73,6.58,1.32.46,2.33,1.17,2.83,2.1-.05-.39-.16-.78-.32-1.14-.5-1.24-2-1.65-3.79-2.22-1.7-.49-3.84-1.63-3.78-4.46,0-.15,0-.32.02-.47.17-1.76,1.45-3.49,2.62-5.29,1.19-1.74,2.24-3.54,2.19-4.36-.04-.49-.06-.84-2.06-1.12-4.68-.37-7.14-2.45-7.11-5.34.02-2.43,1.52-5,3.58-7.53.86-1.06,1.24-2.28,1.24-3.49,0-2.76-1.98-5.21-4.43-5.22-.67,0-1.43.18-2.24.6l-.96.51h.01c.79,0,1.55.23,2.06.77.51.54.69,1.26.68,1.97-.11,3.22-3.31,8.59-7.24,13.12,1.62,2.92,4.05,5.28,6.5,5.8,2.72.64,4.45.83,5.49.83h.03c1.1-.42,1.77-.64,1.78-.64l1.17-.39v1.23c.02.22-.15.77-.66,1.08-.44.28-1.02.44-1.93.48-2.25.85-6.08,2.41-9.9,4.45-1.1.56-2.18,1.18-3.22,1.83.24.11.47.22.71.32M51.4,51.61c0,.39.05.78.16,1.18.55,2.64,6.23,6.5,13.37,10.85,2.03-1.16,3.92-2.31,5.6-3.41,5.12-3.26,8.22-6.49,8.06-7.88,0-.59-.35-1.18-2.01-1.82-5.01-1.8-11.55-4.15-16.88-6.64-.56-.28-1.11-.55-1.65-.82-3.85,2.67-6.74,5.74-6.64,8.53M74.87,69.59c.16.1.32.2.48.3-.88-.93-1.3-2.02-1.29-3.22.11-3.57,3.26-7.55,4.94-11.14-1.5,1.95-4.17,3.93-7.5,6.19-1.48.97-3.11,1.97-4.84,2.98,2.64,1.59,5.44,3.23,8.21,4.9M75.39,71.97c-.48-.29-.96-.58-1.44-.88-3.05-1.9-6.13-3.69-9.02-5.41-3.6,2.03-7.6,4.1-11.73,6.13,3.43-.38,6.96-.57,10.48-.58,3.97,0,7.92.24,11.71.73M88.76,75.05c-2.4-1.04-5.04-1.86-7.81-2.5-.96-.21-1.81-.46-2.56-.76.44.28.89.57,1.33.86,3.23.6,6.28,1.4,9.04,2.4M50.33,47.6c-1.79.58-3.29.98-3.79,2.22-.25.57-.36,1.16-.36,1.79-.13,4.38,5.84,10.12,5.99,15.05.03,2.71-2.13,4.85-6.89,5.88-3.89.9-7.54,2.16-10.6,3.87.44-.2.89-.38,1.35-.57,3.38-1.36,7.23-2.42,11.33-3.18,5.52-2.62,11.01-5.37,15.81-8.04-6.78-4.09-12.22-7.76-13.33-11.38-.15-.55-.22-1.1-.22-1.64.04-1.5.54-2.9,1.36-4.23-.22.08-.44.16-.66.22M87.65,77.78c2.93,1.18,5.41,2.48,7.2,3.92.04-.13.05-.25.04-.36.13-.93-1.61-2.83-6.71-4.62-1.41-.51-2.9-.97-4.47-1.37.91.64,1.81,1.3,2.67,1.96.43.15.86.31,1.28.48M93.19,83.59c.22-.15.41-.31.58-.46-.75-.61-1.66-1.23-2.72-1.83.77.75,1.48,1.51,2.13,2.29M34.82,80.34c-3.01,1.36-4.32,2.9-4.64,4.69.43-.42.9-.83,1.43-1.23,9.62-7.39,21.74-10.06,32.94-10.06,5.98,0,11.71.76,16.68,2-.69-.47-1.39-.94-2.1-1.41-4.85-.88-10.13-1.33-15.44-1.33s-10.78.46-15.77,1.36c-4.46,2.11-8.93,4.13-13.08,5.97M95.98,87.84c.18-.43.25-.77.23-1.01.05-.71-.35-1.57-1.14-2.47-.24.22-.51.43-.79.62.68.94,1.25,1.89,1.7,2.86M46.3,84.18c-3.48,0-6.43.32-8.43.9-2.07.59-2.82,1.42-2.74,1.91,0,.22.09.55.39.99,1.16,2,8.15,3.39,16.7,3.31,6.9,0,14.91-.71,22.12-1.92-8.96-3.44-19.67-5.19-27.72-5.19h-.32M89.29,96.62c2.5-2.64,4.44-5.03,5.62-6.84-.45-1.28-1.18-2.57-2.14-3.87-.28.15-.56.3-.86.44-2.77,1.35-6.56,2.52-10.91,3.51-.24.06-.49.11-.73.16,3.57,1.84,6.69,4.02,9.02,6.59M91.95,100.35c1.15-1.43,2.06-2.85,2.68-4.28.52-1.16.76-2.28.76-3.4,0-.14,0-.29,0-.44-1.27,1.7-2.96,3.61-4.97,5.74.58.77,1.09,1.56,1.54,2.38M29.4,90.49c-.09,3.06,3.25,6.82,8.84,10.54-4.09-3.79-7.26-7.45-8.83-10.87,0,.11-.01.22-.01.32M68.74,115.19c7.14-5.78,13.77-11.68,18.75-16.72.2-.2.41-.41.61-.61-2.58-2.85-6.36-5.27-10.73-7.24-7.98,1.52-17.23,2.43-25.14,2.43-8.75-.08-15.75-.88-18.15-4.07-.44-.64-.7-1.3-.7-1.99.07-1.94,1.82-2.96,4.01-3.6,2.27-.66,5.34-.97,8.92-.98,9.08.05,21.47,2.02,31.32,6.36,5.53-1.08,10.36-2.45,13.51-4,.18-.08.34-.17.51-.25-1.65-1.9-3.76-3.8-6.15-5.66-5.69-2-13.1-3.35-20.94-3.35-10.92,0-22.66,2.63-31.87,9.7-1.07.83-1.84,1.64-2.37,2.43,1.24,4.77,7.73,11.37,16.09,18.08,6.52,3.33,14.33,6.55,22.35,9.48M71.67,116.24c.43.15.86.3,1.3.46,7.05-5.45,13.54-10.25,17.75-14.91-.4-.89-.91-1.74-1.51-2.57-.15.16-.31.32-.47.48-4.85,4.9-11.2,10.59-18.07,16.18.33.12.66.24.99.36M64.19,118.8c.99-.77,1.98-1.55,2.95-2.32-4.86-1.8-9.64-3.7-14.1-5.68,3.64,2.71,7.44,5.4,11.16,8M80.27,119.18c6.89-5.36,11.19-10.61,11.11-14.63,0-.3-.03-.6-.07-.89-4.17,4.42-10.01,8.87-16.31,13.75,1.76.61,3.52,1.2,5.26,1.77M67.43,121.06c1.3-1.05,2.6-2.07,3.88-3.07-.74-.26-1.49-.53-2.23-.8-.43.35-.86.69-1.3,1.03-.69.55-1.39,1.09-2.09,1.64.58.4,1.16.8,1.73,1.2M88.66,121.84c-.02-.25-.03-.5-.02-.74,0-.1,0-.21,0-.32.36-9.35,7.86-17.57,10.41-25.6.71-2.17,1.02-4.14,1.02-5.93.02-3.71-1.38-6.73-3.72-9.18.17.41.27.83.29,1.28-.02.59-.18,1.13-.45,1.63,1.08,1.19,1.71,2.48,1.77,3.86-.05.95-.46,2.05-1.18,3.28.22.84.34,1.69.35,2.55,0,1.37-.29,2.77-.91,4.14-.83,1.78-2.03,3.52-3.51,5.27.28.81.41,1.64.41,2.48-.07,4.96-4.37,10.05-10.88,15.28,2.17.7,4.31,1.37,6.39,2.01M48.92,116.82c3.44,2.17,6.71,4.2,9.8,6.13,1.33-.99,2.67-1.99,4-3.02-3.77-2.64-7.62-5.38-11.31-8.13-2.01-1.52-3.98-3.04-5.87-4.54-1.45-.74-2.85-1.49-4.17-2.24-8.04-4.64-13.63-9.32-13.74-14.52,0-1.1.28-2.18.84-3.21-.08-.45-.13-.91-.14-1.35-.03-3,1.94-5.55,5.77-7.2,1.28-.56,2.58-1.14,3.91-1.74-.45.17-.88.33-1.31.51-4.02,1.63-7.22,3.66-9.29,6.06-.82,1.69-1.27,3.58-1.26,5.7,0,1.78.31,3.75,1.02,5.93.68,2.14,1.71,4.29,2.86,6.47,3.84,4.49,9.93,9.57,18.89,15.17M72.56,124.63c1.96-1.27,3.81-2.55,5.54-3.82.15-.11.3-.22.45-.33-1.73-.58-3.47-1.17-5.21-1.77-1.44,1.12-2.9,2.26-4.36,3.44,1.21.84,2.41,1.67,3.58,2.49M62.42,125.23c1.19-1.03,2.38-2.03,3.58-3.01-.59-.41-1.17-.82-1.77-1.23-1.3,1-2.6,1.98-3.91,2.95.7.44,1.4.87,2.09,1.29M93.46,125.51c.28.04.53.06.76.06.22,0,.42-.02.6-.05-1.08-.31-2.18-.64-3.31-.97.48.51,1.12.85,1.96.97M67.03,128.07c1.34-.8,2.65-1.6,3.92-2.41-1.11-.77-2.25-1.56-3.4-2.36-1.18.96-2.35,1.94-3.51,2.93,1.02.63,2.02,1.24,3,1.84M117.48,129.36c1.15-.03,1.77-.79,1.83-2.25-.01-2.61-2.8-6.89-11.27-6.92-2.29.11-2.78.94-2.92,3.29,0,.91.15,1.97.43,3.16,6.64,1.74,11.19,2.73,11.94,2.72M54.87,134.88c3.58-1.89,7.11-3.83,10.47-5.8-.88-.53-1.78-1.09-2.69-1.65-2.69,2.35-5.31,4.83-7.78,7.45M14.68,122.59c-.56,0-1.06.07-1.5.21-2.21.73-2.79,1.67-2.83,2.99-.15,3.61,6.43,10.48,13.94,14.61.4.23.99.37,1.76.37,2.09.03,5.25-1.02,9.07-2.86-1.1-1.59-2.29-3.09-3.54-4.51-5.67-6.49-12.63-10.82-16.83-10.82h-.08ZM88.49,140.9c-.97-2.17-2.15-3.87-3.55-5-3.08-2.55-7.45-5.67-12.42-9.14-1.23.79-2.5,1.58-3.79,2.36,7.86,4.79,14.36,8.66,19.76,11.79M39.85,142.37c3.5-1.66,7.07-3.4,10.62-5.21,3.25-3.87,6.86-7.42,10.57-10.71-.73-.45-1.47-.91-2.23-1.37-7.49,5.5-14.89,10.36-21.1,13.55.77,1.22,1.49,2.47,2.14,3.75M42.48,148.96c1.56-3,3.38-5.84,5.38-8.51-2.43,1.2-4.85,2.38-7.25,3.51.74,1.63,1.37,3.31,1.86,5M113.68,144.86c1.09,1.93,2.18,3.77,3.2,5.46-1.49-2.67-2.54-5.47-2.57-8.42,0-2.5.8-5.08,2.72-7.6,2.58-3.34,4.71-4.36,4.67-7.29,0-.39-.04-.83-.12-1.33-.94-6.16-8.13-8.22-14.51-8.23-1.31,0-2.58.09-3.71.24-2.3.34-3.07,1.4-3.75,2.92-.53,1.23-.77,2.71-1.38,4.04,1.9.54,3.7,1.03,5.4,1.49-.18-.96-.29-1.85-.3-2.66,0-1.4.29-2.67,1.1-3.62.8-.96,2.07-1.44,3.59-1.44,9.06,0,13.03,4.82,13.03,8.68,0,2.07-1.34,4.02-3.59,4.02-1-.02-5.25-.92-11.39-2.51,1.51,4.77,4.54,10.86,7.59,16.24M8.07,163.16c1.23,1.56,1.29,3.52,1.31,7l-.02,50.15c.38-.84.76-1.71,1.15-2.6,3.77-8.77,7.51-20.09,7.51-30.14,0-10.17-1.77-17.34-3.91-21.92-2.09-4.6-4.74-6.47-5.73-6.37h-3.39l-.31-1.71s12.25-4.71,27.57-11.67c1.96-.89,3.98-1.82,6.03-2.78-.64-1.27-1.36-2.51-2.13-3.72-4.04,1.95-7.51,3.1-10.07,3.13-.98,0-1.87-.17-2.63-.6-7.73-4.45-14.69-10.95-14.84-16.16-.04-2.12,1.45-3.93,4.08-4.68.64-.2,1.31-.29,2.03-.29,5.23.06,12.26,4.69,18.23,11.41,1.34,1.53,2.63,3.16,3.81,4.89,5.24-2.68,11.52-6.65,17.93-11.22.85-.6,1.7-1.21,2.55-1.84-2.92-1.81-5.99-3.72-9.22-5.75-6.19-3.89-11.09-7.54-14.85-10.97,2.27,4.27,4.27,8.7,4.45,13.43,0,.11,0,.22,0,.32.05,2.81-1.35,5.74-4.6,6.17-.35.04-.67.07-.98.07-1.63.03-2.85-.73-3.52-1.76-.69-1.02-.98-2.21-1.33-3.34-.75-2.31-1.31-4.1-4.31-4.54-1.13-.15-2.39-.24-3.71-.24-6.39,0-13.57,2.07-14.51,8.23-.09.5-.12.93-.12,1.32-.04,2.92,2.1,3.95,4.67,7.29,1.92,2.52,2.73,5.1,2.72,7.6-.05,6.85-5.69,12.9-9.25,18.38,2.65.96,4.29,1.56,5.41,2.88M38.65,167.45c-.63,6.01-.89,11.78-.89,17.21,0,14.36,1.85,26.39,3.7,34.82.13.62.27,1.21.4,1.78v-64.51c0-.7-.03-1.39-.1-2.09-1.56,3.96-2.65,8.21-3.12,12.79M111.28,154.99c-2.67,0-7.79,1.99-7.88,20.08,0,1.97.06,4.12.2,6.48,1.18,20.05,6.75,34.38,11.04,42.65-3.22-13.69-8.84-39.61-8.85-53.69.07-4.87.49-8.42,2.79-9.89,4-2.26,7.13-2.9,9.38-2.9.57,0,1.09.04,1.54.11-3.49-5.37-12.69-19.93-15.4-29.73-2.13-.56-4.44-1.2-6.89-1.89-.7.69-1.73,1.15-3,1.13-.31,0-.64-.03-.98-.07-2.18-.29-3.53-1.7-4.16-3.45-2.75-.83-5.59-1.73-8.48-2.67-.47.36-.96.73-1.45,1.09-1.58,1.16-3.26,2.32-5.02,3.48,4.73,3.31,8.92,6.31,11.94,8.82,2.12,1.8,3.72,4.47,4.9,7.78,12.57,7.19,18.42,9.93,20.99,10.94,1.38.13,2.31.62,2.37.65l1.61.85-1.66.74c-.16.07-.3.08-.46.09-.33-.03-.93-.11-2.23-.59-.09,0-.17,0-.27,0h-.03ZM109.46,162.16c-1.04.42-1.96,3.61-1.89,8.36,0,9.6,2.74,25.22,5.49,38.38,1.38,6.63,2.77,12.64,3.8,16.97v-55.7c.01-3.22.07-5.11,1.04-6.63,1.02-1.51,2.65-2.14,5.25-3.1.13-.05.28-.1.42-.15-1.45-2.23-3.24-4.55-4.87-6.99,2.12,3.4,3.63,5.63,3.64,5.63l-1.23,1.23s-.17-.13-.69-.3c-.52-.17-1.33-.36-2.45-.36-1.91,0-4.73.54-8.51,2.67M9.34,231.65l32.5-3.45c-2.21-7.64-5.85-23.29-5.85-43.55,0-5.48.27-11.3.9-17.39.61-5.77,2.17-11.02,4.38-15.84-.49-2.26-1.26-4.52-2.26-6.7-12.58,5.92-23.99,10.63-29.77,12.95,2.16.59,4.41,3,6.45,7.25,2.28,4.87,4.07,12.28,4.07,22.66-.02,13.07-5.96,27.72-10.42,36.91v7.17h0ZM5.37,232.07l2.2-.23v-3.84c-.9,1.73-1.66,3.11-2.2,4.07M43.07,232.14c-.19-.56-.43-1.3-.72-2.21l-20.81,2.21h21.53ZM116.6,232.25c-.12-.47-.28-1.11-.47-1.89-4.19-6.64-12.78-23.11-14.28-48.71-.14-2.39-.21-4.58-.21-6.59,0-9.16,1.35-14.54,3.25-17.74,1.11-1.89,2.45-2.98,3.77-3.56-3.22-1.47-8.43-4.13-16.92-8.98,1.6,5.88,2.17,13.35,2.2,21.47,0,26.37-6.48,59.66-7.76,65.99h30.42ZM2.98,232.68s2.03-3.36,4.6-8.61l.03-53.91c.01-3.5-.2-5.06-.91-5.88-.67-.88-2.35-1.54-5.67-2.71l-1.03-.37.58-.93c3.72-5.93,9.63-12.23,9.57-18.38,0-2.13-.65-4.27-2.36-6.54-2.17-2.95-4.98-4.33-5.03-8.35,0-.5.05-1.03.15-1.61,1.34-7.64,9.68-9.7,16.25-9.7,1.4,0,2.73.09,3.94.25,2.92.35,4.43,2.17,5.14,3.98.74,1.82,1.03,3.68,1.72,4.65.46.63.9.96,2.06.99.22,0,.48-.02.74-.06,2.13-.29,3.02-2.01,3.07-4.41,0-.1,0-.18,0-.26-.16-6.1-4.03-12.07-7.22-18.13-3.85-4.55-5.58-8.66-5.61-12.42,0-2.94,1.09-5.52,2.97-7.74,3.2-6.3,10.86-9.87,18.94-11.71,4.55-1.11,5.49-2.53,5.51-4.16.16-3.63-5.86-9.52-5.99-15.05,0-.85.15-1.7.51-2.51,1.03-2.23,3.28-2.64,4.85-3.19,1.68-.64,2.52-.93,2.57-2.78,0-.11,0-.23,0-.36-.02-.87-1.13-2.68-2.33-4.43-1.17-1.8-2.43-3.54-2.49-5.33-.04-1.62,1.45-2.76,3.66-2.88,4.43-.5,5.47-1.85,5.51-3.58.02-1.64-1.21-4.04-3.18-6.41-1.14-1.38-1.64-3.02-1.64-4.6.01-3.52,2.5-6.95,6.2-6.98.66,0,1.35.12,2.05.36.7-2.76,1.41-5.52,2.11-8.27l.17-.67h1.43l.17.67c.7,2.76,1.41,5.51,2.11,8.27.7-.24,1.38-.36,2.05-.36,3.7.04,6.19,3.46,6.2,6.98,0,1.58-.5,3.22-1.64,4.6-1.96,2.37-3.2,4.78-3.18,6.41.04,1.73,1.08,3.08,5.51,3.58,2.22.12,3.71,1.26,3.66,2.88-.05,1.8-1.32,3.53-2.49,5.33-1.19,1.75-2.31,3.56-2.33,4.44-.01.11-.01.22-.01.34.06,1.85.9,2.14,2.58,2.78,1.57.55,3.83.96,4.85,3.19.36.81.51,1.66.51,2.5-.13,5.53-6.15,11.42-5.99,15.06.03,1.63.96,3.05,5.52,4.16,10.59,2.42,20.46,7.79,20.5,18.42,0,1.99-.35,4.15-1.1,6.47-2.83,8.53-10.11,16.69-10.33,25.13,0,.07,0,.15,0,.25.01.46.05.9.13,1.31,2.06.62,4.06,1.21,5.99,1.76.32-.64.58-1.5.86-2.44.63-2.27,1.8-5.3,5.76-5.78,1.21-.17,2.54-.25,3.94-.25,6.58,0,14.91,2.07,16.26,9.71.1.57.14,1.11.14,1.61-.04,4.02-2.86,5.41-5.03,8.35-1.71,2.27-2.36,4.41-2.36,6.54-.06,6.15,5.85,12.45,9.57,18.38l.58.93-1.03.37c-.52.18-1,.36-1.45.52-2.63.95-3.85,1.56-4.38,2.41-.58.84-.77,2.45-.75,5.66v60.78c.74,1.09,1.18,1.63,1.19,1.64l1.17,1.44h-36.99l.23-1.06c0-.07,7.95-37.74,7.94-66.7.03-8.89-.77-16.95-2.67-22.75-5.91-3.4-13.27-7.77-22.45-13.38-4.9,2.9-10.15,5.74-15.46,8.45-3.31,3.97-6.23,8.27-8.47,13,.34,1.72.52,3.45.52,5.18v71.27c.89,3.04,1.52,4.68,1.52,4.68l.46,1.2H7.57v-.29l-5.52.59.92-1.53h0Z" fill="#f39325"/>
      <path d="M64.32,14.64c-1.29.91-2.14,2.11-2.13,3.26-.04.5.5,1.3,1.43,2.09,1.47-2.41,2.39-4.55,2.32-5.8-.02-.18-.04-.32-.06-.43-.54.23-1.08.53-1.57.88M65.21,21.17c.64-1.12,1.23-2.17,1.76-3.12,1.35-2.33,2.23-4.31,2.15-4.39-.04-.34-.02-.38-.91-.48-.18,0-.39.01-.61.05.09.31.12.63.12.95-.05,1.8-1.08,4.27-2.66,6.88.05.04.1.07.15.1M58.52,20.36c-.02,1.68.39,3.49,1.11,5.2,1.1-1.33,2.14-2.72,3.04-4.07-1.19-.95-2.17-2.05-2.25-3.59.08-1.64.9-3.01,2.04-4.06-2.84,1.23-3.91,3.59-3.94,6.51M64.27,26.4c1.81-.33,2.88-.7,3.27-.98.08-.05.13-.09.15-.11,0-.02-.03-.07-.1-.16-.13-.17-.37-.4-.68-.65-.31-.25-.69-.52-1.12-.81-.5.88-1.01,1.78-1.52,2.71M60.79,26.94c.42-.06.84-.13,1.27-.19.77-1.4,1.54-2.75,2.27-4.04-.07-.05-.14-.1-.21-.15-.98,1.47-2.11,2.97-3.32,4.38M51.79,31.12c-.53.37-.61.6-.61.74-.05.13.09.44.5.88.17-.12.36-.24.55-.36,1.11-.64,2.31-1.58,3.52-2.7-1.82.43-3.22.91-3.96,1.43M54.99,35.09c.67.37,1.44.77,2.32,1.18.86-2,1.85-4.06,2.91-6.08-.29-.4-.58-.81-.84-1.23-.17.03-.32.06-.49.08-1.9,1.99-3.9,3.7-5.75,4.85-.02,0-.04.03-.06.04.51.36,1.14.75,1.9,1.16M62.33,38.47c2.35-1.24,4.69-2.3,6.66-3.13-.72-.13-1.52-.29-2.42-.51-1.89-.48-3.64-1.62-5.12-3.17-.92,1.8-1.79,3.62-2.53,5.36,1.02.46,2.17.94,3.42,1.45M51.65,35.69c-.16.92,1.51,2.55,4.24,4.24.22-.66.46-1.33.73-2.01-.93-.45-1.77-.87-2.51-1.28-.91-.53-1.69-1-2.34-1.47-.09.19-.13.36-.13.53M57.9,41.06c.8-.52,1.63-1.02,2.46-1.5-.75-.31-1.45-.62-2.11-.91-.29.75-.56,1.47-.79,2.17.14.08.29.16.43.23M53.58,46.91c.36-.11.72-.23,1.09-.33-.01-.17-.01-.34,0-.51,0-.1,0-.19,0-.28-.4.37-.76.75-1.09,1.13M69.98,49.21c.58-.17,1.13-.32,1.64-.46-3.95-1.45-8.23-3.11-11.93-4.84-.56-.28-1.11-.55-1.65-.82-.5.34-.98.69-1.44,1.05-.12.7-.18,1.34-.18,1.93v.07c1.48-.32,2.89-.46,4.2-.46,4.17,0,7.45,1.47,9.35,3.54M59.15,49.84c1.48.28,2.85.4,4.11.4,1.77,0,3.3-.22,4.65-.51-1.59-1.3-4.04-2.28-7.28-2.29-1.21,0-2.53.14-3.93.45.34,1.05,1.06,1.64,2.45,1.95M60.44,42.3c5.21,2.44,11.72,4.78,16.74,6.58,1.91.66,3.18,1.87,3.17,3.47-.05.98-.46,1.94-1.15,2.91.81-1.05,1.24-2.13,1.22-3.17.06-2.65-2.84-6.15-11.55-9.26-2.4-.86-4.54-1.66-6.43-2.42-.92.49-1.83,1.01-2.71,1.56.24.11.47.22.71.32M76.77,52.99c-.18,2.5-3.04,4.72-7.11,7.82.3-.19.59-.38.88-.57,5.12-3.26,8.22-6.49,8.06-7.89,0-.58-.35-1.17-2.01-1.81,0,0-.02-.01-.03-.01.17.67.22,1.46.22,2.46M51.39,51.61c0,.39.05.78.16,1.19.43,2.1,4.14,4.99,9.25,8.27,2.7-2.13,5.04-3.63,6.47-4.23,2.06-.83,2.77-2.05,2.79-3.36,0-.71-.26-1.5-.77-2.26-1.67.41-3.7.77-6.03.78-1.36,0-2.85-.12-4.44-.43-2.03-.34-3.3-1.61-3.85-3.26-1.12.32-2.15.69-3.1,1.12-.33.74-.5,1.47-.48,2.19M46.45,54.76c-.07,1.72,1.99,4.2,8.19,6.38,1.35.47,2.83.77,4.39.92-4.77-3.09-8.3-5.97-9.18-8.81-.14-.55-.22-1.1-.22-1.64.01-.36.04-.71.1-1.06-2.13,1.34-3.37,2.88-3.28,4.21M62.48,62.13c.88-.04,1.76-.12,2.64-.24,1.1-.77,2.15-1.51,3.12-2.22,4.28-3.02,6.96-5.85,6.77-6.68,0-1.4-.17-2.24-.36-2.57-.2-.3-.2-.3-.67-.34-.6-.03-1.57.28-2.88.65.47.87.73,1.8.74,2.74.02,2.08-1.37,4.03-3.91,5-1.16.43-3.17,1.71-5.56,3.58.04.02.08.04.11.07M54.82,68.91c2.5-1.72,4.96-3.37,7.25-4.94-.03-.02-.06-.04-.09-.06-.24,0-.49,0-.74,0-.37,0-.75,0-1.12-.02-1.71,1.47-3.52,3.17-5.31,5.01M75.75,72.2c-.6-.37-1.2-.74-1.8-1.1-3.06-1.9-6.13-3.7-9.02-5.42-3.06,1.72-6.4,3.48-9.86,5.21-.49.34-.99.69-1.48,1.03-.07.04-.13.09-.19.13,3.47-.38,7.04-.56,10.6-.56,3.99,0,7.96.23,11.77.71M34.82,80.35c-3.5,1.58-4.69,3.4-4.72,5.58-.04,1.21.38,2.58,1.17,4.08,2.55-4.51,7.39-8.97,12.87-13.32.57-.45,1.16-.9,1.75-1.35-3.78,1.77-7.54,3.47-11.07,5.02M97.13,92.09c.81-1.71,1.22-3.38,1.2-4.92-.02-4.19-2.88-7.94-10.14-10.44-1.36-.46-2.8-.88-4.31-1.25,7.15,5.07,12.81,10.52,13.25,16.61M64.9,83.77c-.02,4.28,1.91,11.3,5.05,19.16,7.85-.58,10.46-4.29,10.52-8.59.05-5.93-5.6-13.29-12.71-14.6-.25-.04-.47-.07-.67-.07-1.42,0-2.11,1.04-2.2,4.1M73.31,110.66c2.88-1.18,5.56-2.47,8.02-3.85,5.85-3.26,10.4-7.03,13.31-10.74.52-1.15.76-2.27.76-3.39.13-5.93-7.13-12.29-15.98-18.13-4.84-.85-10.12-1.28-15.43-1.28-4.63,0-9.28.32-13.68.97-.11.08-.22.16-.33.24-3.83,4.93-6.67,10.25-6.59,14.84.04,5.18,3.34,9.67,13.82,12.22,4.29,1.02,7.89,1.46,10.87,1.46-3.05-7.72-4.93-14.65-4.94-19.23,0-1.65.23-3.03.86-4.11.6-1.09,1.77-1.79,3.1-1.76.32,0,.66.03,1,.1,8.05,1.59,14.1,9.38,14.15,16.33.01,2.77-1.04,5.47-3.38,7.39-1.91,1.56-4.61,2.6-8.2,2.94.82,1.96,1.7,3.97,2.65,5.99M75.36,114.86c4.57-3.51,8.79-6.75,12.19-9.89-1.65,1.16-3.44,2.29-5.36,3.38-2.5,1.4-5.22,2.71-8.12,3.91.42.86.85,1.74,1.29,2.61M52.47,110.38c2.11,1.58,4.27,3.15,6.45,4.7,4.55-.98,8.82-2.27,12.76-3.78-1.04-2.21-2-4.4-2.88-6.54-.23,0-.47,0-.71,0-3.16,0-6.9-.46-11.29-1.51-10.82-2.52-15.21-7.81-15.18-13.95.06-3.72,1.58-7.65,3.86-11.45-5.92,4.66-10.94,9.49-13.15,13.89,3.65,5.44,11.4,12.17,20.15,18.63M31.13,96.34c0,3.1,1.87,6.09,7.07,8.94,5.14,2.81,10.74,6.42,16.42,10.63.65-.11,1.3-.22,1.94-.34-1.73-1.24-3.46-2.5-5.14-3.77-8.27-6.25-15.81-12.42-19.89-18.08-.28.9-.42,1.77-.39,2.62M24.72,90.36c-.07,6.36,6.45,15.32,24.02,26.35,1.16-.12,2.31-.27,3.45-.43-5.13-3.73-10.17-6.94-14.83-9.46-5.48-2.95-8-6.56-7.99-10.49.02-1.47.36-2.95.97-4.43-1.24-2.08-1.96-4.08-2-5.98-.01-1.96.83-3.73,2.48-5.19-3.88,2.61-6.12,5.84-6.1,9.63M67.43,121.06c2.2-1.77,4.39-3.47,6.52-5.11-.52-1.02-1.02-2.04-1.51-3.05-3.6,1.39-7.48,2.59-11.58,3.55,2.21,1.57,4.41,3.11,6.58,4.6M64.29,123.64c.57-.48,1.14-.95,1.71-1.42-2.45-1.71-4.97-3.46-7.47-5.25-.65.14-1.31.27-1.98.39,2.59,1.98,5.18,4.08,7.75,6.28M27.01,123.66c-.81-.63-1.82-1.14-3.07-1.49.06.04.13.07.21.11.45.15.91.32,1.38.52.46.21.88.46,1.28.76.07.03.14.06.21.1M62.35,125.29c.2-.17.38-.33.58-.5-2.89-2.48-5.82-4.83-8.74-7.03-1.01.16-2.03.31-3.07.44,3.98,2.5,7.72,4.86,11.23,7.08M29.22,126.72c-.03-.06-.05-.12-.07-.18-.01,0-.02,0-.02-.01.03.06.06.13.09.2M66.41,127.87c-.69-.63-1.4-1.26-2.1-1.87-.12.1-.24.21-.36.31.83.53,1.66,1.05,2.46,1.57M83.97,132.86c-2.08-3-4.1-6.22-6.04-9.54-1.09-1.89-2.13-3.81-3.15-5.74-1.9,1.48-3.85,2.99-5.8,4.55,5.73,3.98,11.02,7.65,14.99,10.72M79.31,140.89c-2.01-2.28-4.12-4.52-6.28-6.7-3.25-2.08-6.73-4.29-10.48-6.67-2.48,2.17-4.9,4.45-7.19,6.85,7.97,2.57,16.36,4.93,23.95,6.52M85.11,141.97c-1.81-1.18-3.73-2.42-5.77-3.73.96,1.06,1.91,2.14,2.83,3.22,1,.19,1.97.36,2.93.51M12.88,132.36c0,2.51.66,5.07,1.84,6.93,1.19,1.86,2.79,2.99,4.83,2.99,2.78,0,5.33-1.57,7.2-3.95,1.04-1.32,1.85-2.87,2.38-4.49-.45-4.25-1.54-7.31-3.17-8.73-.91-.42-1.72-.82-2.43-1.18-1.35-.44-2.53-.64-3.58-.64-4.85,0-7.03,4.24-7.09,9.07M89.13,142.48c-1.08-2.92-2.46-5.19-4.2-6.59-4.07-3.37-10.41-7.75-17.38-12.6-.62.51-1.25,1.03-1.87,1.55,2.91,2.55,5.77,5.22,8.53,8,5.7,3.65,10.64,6.84,14.92,9.64M99.37,130.87c-2.76,2.75-3.72,4.93-3.71,6.54-.05,2.07,1.62,3.8,4.06,5.2,1.98-.34,3.48-.93,4.4-1.76,5.41-4.76,8.11-10.67,8.08-14.08-.1-2.06-.66-2.81-2.14-2.87h-.07c-1.89,0-5.58,1.89-10.63,6.97M91.93,142.79c-.44-.46-.89-.94-1.33-1.43.17.44.34.89.5,1.36.28.03.55.04.83.07M105.62,148.98c.33,0,.65-.02.96-.06,1.5-.21,2.63-.42,3.4-.6-.32-.11-.68-.23-1.08-.36-1.58-.49-3.73-1.11-5.91-1.93-1.2-.46-2.43-.98-3.59-1.59-.9.12-1.85.2-2.86.23,3.28,2.77,6.4,4.37,9.08,4.31M91.58,153.95c-.36-3.24-.88-6.21-1.6-8.81-.46-.3-.93-.6-1.4-.91-1.49-.18-3.05-.41-4.65-.68,2.78,3.39,5.36,6.87,7.65,10.4M101.68,177.4c0-.49-.01-.96-.01-1.42,0-6.83.88-11.14,2.31-13.88,1.37-2.69,3.48-3.8,5.48-3.81-1.23-.87-2.69-1.89-4.43-3.09-3.23-2.21-7.42-5.03-12.83-8.6.73,3.2,1.19,6.81,1.46,10.68,3.96,6.68,6.81,13.49,8.04,20.12M93.93,166.26c0,16.59-2.57,35.91-4.79,49.55,2.47-5.09,5.49-11.62,9.13-19.98,1.59-3.65,2.32-7.5,2.32-11.49.03-7.4-2.51-15.28-6.75-23.13.06,1.65.09,3.33.09,5.05M43.08,229.69c-1.7-4.61-7.08-21.18-7.09-45.29,0-5.36.27-11.09.9-17.13,1.38-12.97,7.49-23.36,15.28-32.08-7.9-2.62-15.25-5.39-20.89-7.74.18.81.27,1.65.25,2.5,0,1.35-.22,2.74-.63,4.1.15,1.57.22,3.26.22,5.05-.02,27.41-15.88,80.55-18.37,88.76l30.32,1.83h0ZM81.55,170.42v1.99s0,57.68,0,57.68c.65-1.05,1.5-2.51,2.57-4.49.67-1.24,1.44-2.68,2.29-4.35,2.36-13.44,5.75-36.08,5.75-55,0-2.92-.07-5.74-.25-8.42-3.02-5.01-6.67-9.98-10.73-14.78-8.53-1.63-18.14-4.33-27.17-7.26-7.89,8.61-14.05,18.83-15.36,31.65-.62,5.98-.89,11.65-.89,16.95,0,14.12,1.87,25.61,3.74,33.58,1.25,5.34,2.5,9.07,3.18,10.94v-58.49c.02-10.29,8.48-18.6,18.43-18.61,9.96.02,18.42,8.33,18.43,18.61M8.07,163.17c1.23,1.56,1.3,3.52,1.31,7v61.98h35.3v-.59l-34.27-2.07.34-1.07s4.66-15.01,9.31-33.7c4.66-18.67,9.31-41.06,9.31-55.62,0-.5,0-.98-.01-1.45-2.11,3.61-5.59,6.35-9.81,6.41-5.6-.09-8.43-6.14-8.44-11.68,0-5.26,2.68-10.83,8.85-10.84.06,0,.11,0,.17,0-.04-.12-.08-.26-.1-.43-.02-.54.47-.94.73-1,.28-.1.5-.11.77-.11.32,0,.69.03,1.13.1,3.95.53,6.5,2.53,7.82,5.1,5.07,2.17,11.87,4.78,19.3,7.32,1.22.42,2.46.83,3.71,1.25,2.38-2.55,4.9-4.96,7.47-7.25-3.93-2.49-8.15-5.15-12.66-7.98-3.09.3-6.26.46-9.5.46-5.17,0-10.52-.4-15.97-1.29l.14-.87-.14.87c-1.19-.2-2.55-.31-3.96-.31-6.29,0-13.31,2.22-14.24,8.3-.08.49-.12.92-.12,1.32-.05,2.92,2.09,3.95,4.67,7.29,1.92,2.53,2.73,5.1,2.72,7.61-.06,6.85-5.69,12.9-9.25,18.38,2.65.96,4.28,1.56,5.4,2.89M117.38,232.25c-3.18-4.57-12.57-19.97-15.12-45.37-.25,3.32-1.02,6.55-2.37,9.65-5.03,11.57-8.9,19.67-11.76,25.28-.88,5.02-1.61,8.72-1.96,10.44h31.21ZM79.78,172.41v-1.99c-.01-9.29-7.71-16.83-16.67-16.85-8.95.02-16.65,7.55-16.66,16.85v1.99s0,61.49,0,61.49H7.65v-.4h-.03v-63.34c.01-3.49-.2-5.06-.91-5.88-.67-.88-2.35-1.54-5.67-2.72l-1.02-.37.57-.93c3.72-5.93,9.63-12.23,9.58-18.37,0-2.13-.65-4.27-2.37-6.54-2.17-2.95-4.98-4.33-5.03-8.35,0-.5.05-1.04.14-1.61,1.32-7.52,9.46-9.78,15.98-9.78,1.51,0,2.95.12,4.24.33h0c5.35.88,10.6,1.27,15.69,1.27,2.39,0,4.74-.09,7.05-.25-16.27-10.6-22.85-19.29-22.91-26.6.03-6.59,5.51-11.3,13.18-14.33,3.11-1.23,6.6-2.2,10.34-2.93,1.25-.59,2.51-1.19,3.76-1.8,2.37-2.81,4.98-5.42,7.47-7.62-1.26-.18-2.49-.47-3.64-.87-6.34-2.25-9.3-4.93-9.37-8.05.11-2.84,2.48-5.08,5.92-6.7.95-1.79,2.53-3.44,4.41-4.94.1-.48.22-.97.36-1.46-3.12-1.79-5.31-3.63-5.48-5.97,0-.61.19-1.17.53-1.69-.62-.67-.95-1.35-1-2.15.16-1.99,2.04-2.73,4.34-3.47,1.23-.37,2.67-.69,4.25-.98.11-.12.22-.25.33-.37-.99-2.14-1.57-4.47-1.59-6.69-.04-3.65,1.75-7.18,5.94-8.49.86-.27,1.61-.42,2.28-.42.49,0,.97.08,1.38.28.65-.18,1.28-.29,1.85-.3.64,0,1.26.11,1.8.49.55.36.9,1.06.88,1.76-.08,1.21-1.01,2.74-2.37,5.25-.55.99-1.18,2.08-1.84,3.24.48.32.94.64,1.33.96.71.6,1.41,1.14,1.47,2.21-.04,1.02-.84,1.6-1.8,1.99-.99.41-2.42.74-4.5,1.05-.29.53-.58,1.06-.86,1.61,1.38,1.61,3.02,2.78,4.65,3.13,2.72.64,4.45.83,5.49.83h.03c1.1-.41,1.77-.64,1.78-.64l1.17-.39v1.23c.02.21-.15.77-.66,1.08-.43.28-1.02.44-1.93.48-1.93.73-5.05,1.99-8.33,3.63,1.5.58,3.15,1.19,4.94,1.84,8.86,3.19,12.66,6.91,12.72,10.92-.05,3.54-3.01,6.41-6.95,8.48-1.57.82-3.31,1.51-5.15,2.05-1.08.68-2.23,1.37-3.43,2.07,2.64,1.59,5.44,3.24,8.21,4.9,1.73,1.06,3.46,2.15,5.15,3.25,3.12.56,6.06,1.29,8.74,2.21,7.61,2.55,11.36,6.97,11.34,12.11-.03,3.24-1.43,6.6-3.98,9.88-3.15,6.43-10.99,12.53-19.93,19.44,1.04,2,2.13,4,3.26,5.95,4.63,8.13,10.01,15.56,15.13,20.48.26,0,.51.01.77.01.55,0,1.08-.02,1.59-.04-1.77-1.39-3.01-3.15-3.06-5.49,0-2.33,1.3-4.87,4.23-7.79,5.28-5.24,9.09-7.45,11.94-7.49,1.23-.01,2.32.49,2.97,1.37.67.87.94,2.01.94,3.26-.02,4.21-2.97,10.33-8.68,15.4-.83.72-1.87,1.26-3.07,1.66,3.54,1.5,7.45,2.38,9.23,3.18.47.29,1.08.33,1.25,1.4-.27,1.27-1.01,1.18-1.83,1.51-.89.25-2.2.48-4.07.75-.39.05-.79.08-1.2.08-3.79-.07-7.79-2.37-11.8-6.09-.48-.02-.98-.04-1.48-.08,20.8,13.67,24.1,16.7,24.41,16.99h0s.01.02.02.02l-1.23,1.27s-.75-.7-1.91-1.42c-1.16-.72-2.69-1.4-4.09-1.39-1.43.03-2.78.58-4.01,2.87-1.21,2.3-2.1,6.38-2.1,13.06,0,1.69.06,3.55.18,5.58,1.48,25.18,9.9,41.34,13.98,47.82,1.36,2.16,2.22,3.21,2.22,3.22l1.17,1.44h-36.99l.23-1.07s.46-2.22,1.16-5.96c-2.75,5-3.98,6.52-4.03,6.58l-1.57,1.93v-63.09h0Z" fill="#903"/>
    </g>
  </g>
</svg>