<?xml version="1.0" encoding="UTF-8" standalone="no"?>
<svg
   xmlns:dc="http://purl.org/dc/elements/1.1/"
   xmlns:cc="http://creativecommons.org/ns#"
   xmlns:rdf="http://www.w3.org/1999/02/22-rdf-syntax-ns#"
   xmlns:svg="http://www.w3.org/2000/svg"
   xmlns="http://www.w3.org/2000/svg"
   xmlns:sodipodi="http://sodipodi.sourceforge.net/DTD/sodipodi-0.dtd"
   xmlns:inkscape="http://www.inkscape.org/namespaces/inkscape"
   version="1.1"
   id="svg2"
   xml:space="preserve"
   width="442.66666"
   height="126.66667"
   viewBox="0 0 442.66666 126.66667"
   sodipodi:docname="NdB_logo_pozitiv.eps"><metadata
     id="metadata8"><rdf:RDF><cc:Work
         rdf:about=""><dc:format>image/svg+xml</dc:format><dc:type
           rdf:resource="http://purl.org/dc/dcmitype/StillImage" /></cc:Work></rdf:RDF></metadata><defs
     id="defs6" /><sodipodi:namedview
     pagecolor="#ffffff"
     bordercolor="#666666"
     borderopacity="1"
     objecttolerance="10"
     gridtolerance="10"
     guidetolerance="10"
     inkscape:pageopacity="0"
     inkscape:pageshadow="2"
     inkscape:window-width="640"
     inkscape:window-height="480"
     id="namedview4" /><g
     id="g10"
     inkscape:groupmode="layer"
     inkscape:label="ink_ext_XXXXXX"
     transform="matrix(1.3333333,0,0,-1.3333333,0,126.66667)"><g
       id="g12"
       transform="scale(0.1)"><path
         d="M 510.742,13.2969 H 756.801 V 944.336 H 524.043 V 440.242 L 246.063,944.336 H 0 V 13.2969 H 232.766 V 517.383 Z M 1145.95,530.688 c 30.59,0 62.51,-9.313 94.44,-29.266 v -266 c -27.94,-27.93 -63.85,-42.563 -94.44,-42.563 -63.84,0 -118.37,51.868 -118.37,168.922 0,117.039 54.53,168.907 118.37,168.907 m -70.49,192.859 C 927.82,723.547 794.824,601.188 794.824,361.781 794.824,122.359 934.473,0 1068.81,0 c 65.17,0 139.65,27.9297 184.88,79.8047 V 13.2969 h 212.8 V 944.328 h -226.1 v -266 c -49.22,26.602 -107.74,45.219 -164.93,45.219 m 953.5,-428.281 c 0,-71.821 -55.85,-89.11 -86.45,-89.11 h -178.23 v 175.571 h 178.23 c 33.25,0 86.45,-18.618 86.45,-86.461 m -22.61,367.093 c 0,-70.484 -57.19,-87.765 -91.77,-87.765 h -150.3 v 176.883 h 150.3 c 37.24,0 91.77,-18.618 91.77,-89.118 m 239.41,29.274 c 0,176.89 -150.29,252.703 -308.57,252.703 H 1538.17 V 13.2969 h 416.31 c 166.26,0 327.19,77.1562 327.19,268.6641 0,106.414 -55.86,179.562 -135.65,222.133 58.51,42.554 99.74,105.078 99.74,187.539"
         style="fill:#231f20;fill-opacity:1;fill-rule:nonzero;stroke:none"
         id="path14" /><path
         d="m 3145.72,339.023 c 0,26.829 13.12,32.758 21.87,32.758 8.74,0 21.84,-5.929 21.84,-32.758 0,-26.82 -13.1,-32.742 -21.84,-32.742 -8.75,0 -21.87,5.922 -21.87,32.742 m -45,0 c 0,-43.835 34.2,-70.132 66.87,-70.132 32.66,0 66.86,26.297 66.86,70.132 0,43.836 -34.2,70.149 -66.86,70.149 -32.67,0 -66.87,-26.313 -66.87,-70.149"
         style="fill:#231f20;fill-opacity:1;fill-rule:nonzero;stroke:none"
         id="path16" /><path
         d="m 2922.96,340.508 c 0,22.695 10.54,32.758 22.88,32.758 5.92,0 12.09,-1.813 18.26,-5.68 v -51.57 c -5.41,-5.407 -12.34,-8.25 -18.26,-8.25 -12.34,0 -22.88,10.054 -22.88,32.742 m -45.01,0 c 0,-46.414 26.99,-70.133 52.98,-70.133 12.59,0 27,5.406 35.73,15.469 v -12.891 h 41.15 v 190.813 h -43.71 v -61.883 c -9.51,5.156 -20.84,8.773 -31.89,8.773 -28.54,0 -54.26,-23.718 -54.26,-70.148"
         style="fill:#231f20;fill-opacity:1;fill-rule:nonzero;stroke:none"
         id="path18" /><path
         d="m 2771.53,340.508 c 0,21.922 9.78,32.758 23.67,32.758 4.61,0 10.8,-1.555 17.48,-7.219 v -50.031 c -5.41,-5.407 -12.35,-8.25 -18.27,-8.25 -12.34,0 -22.88,10.054 -22.88,32.742 m -45.01,0 c 0,-46.414 27,-70.133 52.98,-70.133 12.61,0 27.52,5.406 38.06,18.047 0.78,-5.156 1.81,-11.859 3.6,-16.766 l 41.66,2.578 c -4.87,14.188 -6.43,24.243 -6.43,41.266 v 92.563 h -41.15 v -10.297 c -12.85,11.078 -23.91,12.89 -31.88,12.89 -28.55,0 -56.84,-23.718 -56.84,-70.148"
         style="fill:#231f20;fill-opacity:1;fill-rule:nonzero;stroke:none"
         id="path20" /><path
         d="m 2634.3,272.953 h 43.73 l 49.12,135.11 h -43.99 l -25.71,-78.891 -25.99,78.891 h -46.28 l 49.12,-135.11"
         style="fill:#231f20;fill-opacity:1;fill-rule:nonzero;stroke:none"
         id="path22" /><path
         d="m 2527.6,444.438 c 0,-14.188 11.57,-25.782 25.72,-25.782 14.14,0 25.72,11.594 25.72,25.782 0,14.171 -11.58,25.789 -25.72,25.789 -14.15,0 -25.72,-11.618 -25.72,-25.789 m 3.86,-171.485 h 43.72 v 135.11 h -43.72 v -135.11"
         style="fill:#231f20;fill-opacity:1;fill-rule:nonzero;stroke:none"
         id="path24" /><path
         d="m 2421.6,340.508 c 0,22.695 10.54,32.758 22.88,32.758 5.92,0 12.09,-1.813 18.25,-5.68 v -51.57 c -5.39,-5.407 -12.33,-8.25 -18.25,-8.25 -12.34,0 -22.88,10.054 -22.88,32.742 m -45.01,0 c 0,-46.414 27,-70.133 52.98,-70.133 12.6,0 27,5.406 35.74,15.469 v -12.891 h 41.15 v 190.813 h -43.73 v -61.883 c -9.5,5.156 -20.82,8.773 -31.88,8.773 -28.55,0 -54.26,-23.718 -54.26,-70.148"
         style="fill:#231f20;fill-opacity:1;fill-rule:nonzero;stroke:none"
         id="path26" /><path
         d="m 3256.19,536.953 h 43.71 V 672.07 h -43.71 z m -4.11,147.5 h 35.22 l 32.15,50.797 -42.68,2.578 -24.69,-53.375"
         style="fill:#231f20;fill-opacity:1;fill-rule:nonzero;stroke:none"
         id="path28" /><path
         d="m 3109.09,536.953 h 43.72 v 92.063 c 5.92,4.125 14.67,8.25 22.12,8.25 7.45,0 13.12,-3.875 13.12,-12.641 v -87.672 h 43.71 v 89.219 c 0,33.273 -19.28,48.476 -41.92,48.476 -13.1,0 -28.02,-5.414 -39.6,-15.468 v 12.89 h -41.15 V 536.953"
         style="fill:#231f20;fill-opacity:1;fill-rule:nonzero;stroke:none"
         id="path30" /><path
         d="m 2999.32,604.516 c 0,22.687 10.53,32.75 22.87,32.75 5.93,0 12.09,-1.813 18.26,-5.672 v -51.586 c -5.39,-5.406 -12.33,-8.242 -18.26,-8.242 -12.34,0 -22.87,10.062 -22.87,32.75 m -45.02,0 c 0,-46.422 27.01,-70.141 52.99,-70.141 12.59,0 26.99,5.406 35.74,15.469 v -12.891 h 41.15 v 190.82 h -43.73 v -61.882 c -9.51,5.156 -20.82,8.765 -31.89,8.765 -28.54,0 -54.26,-23.718 -54.26,-70.14"
         style="fill:#231f20;fill-opacity:1;fill-rule:nonzero;stroke:none"
         id="path32" /><path
         d="m 2851.91,604.516 c 0,26.82 13.1,32.75 21.84,32.75 8.75,0 21.86,-5.93 21.86,-32.75 0,-26.821 -13.11,-32.75 -21.86,-32.75 -8.74,0 -21.84,5.929 -21.84,32.75 m -45.02,0 c 0,-43.844 34.2,-70.141 66.86,-70.141 32.68,0 66.88,26.297 66.88,70.141 0,43.836 -34.2,70.14 -66.88,70.14 -32.66,0 -66.86,-26.304 -66.86,-70.14"
         style="fill:#231f20;fill-opacity:1;fill-rule:nonzero;stroke:none"
         id="path34" /><path
         d="m 2709.68,536.953 h 43.72 v 68.844 c 11.83,14.969 29.53,23.984 50.1,26.062 l -7.72,42.641 c -22.62,-3.609 -37.5,-19.961 -44.95,-40.586 v 38.156 h -41.15 V 536.953"
         style="fill:#231f20;fill-opacity:1;fill-rule:nonzero;stroke:none"
         id="path36" /><path
         d="m 2595.23,604.516 c 0,21.922 9.78,32.75 23.67,32.75 4.62,0 10.8,-1.555 17.49,-7.227 v -50.031 c -5.41,-5.406 -12.35,-8.242 -18.26,-8.242 -12.35,0 -22.9,10.062 -22.9,32.75 m -45,0 c 0,-46.422 27,-70.141 52.97,-70.141 12.6,0 27.52,5.422 38.07,18.047 0.76,-5.156 1.8,-11.859 3.59,-16.758 l 41.68,2.578 c -4.89,14.18 -6.43,24.242 -6.43,41.258 v 92.57 h -41.15 v -10.304 c -12.87,11.086 -23.92,12.882 -31.89,12.882 -28.55,0 -56.84,-23.71 -56.84,-70.132 m 43.98,79.937 h 35.22 l 32.15,50.797 -42.68,2.578 -24.69,-53.375"
         style="fill:#231f20;fill-opacity:1;fill-rule:nonzero;stroke:none"
         id="path38" /><path
         d="m 2383.33,536.953 h 45.01 v 97.727 l 53.74,-97.727 h 47.58 v 180.508 h -45 v -97.727 l -53.75,97.727 h -47.58 V 536.953"
         style="fill:#231f20;fill-opacity:1;fill-rule:nonzero;stroke:none"
         id="path40" /><path
         d="m 2835.68,80.5547 c 0,26.8203 13.13,32.7423 21.86,32.7423 8.75,0 21.87,-5.922 21.87,-32.7423 0,-26.8203 -13.12,-32.75 -21.87,-32.75 -8.73,0 -21.86,5.9297 -21.86,32.75 m -45,0 c 0,-43.8359 34.2,-70.1484 66.86,-70.1484 32.67,0 66.87,26.3125 66.87,70.1484 0,43.8363 -34.2,70.1403 -66.87,70.1403 -32.66,0 -66.86,-26.304 -66.86,-70.1403"
         style="fill:#231f20;fill-opacity:1;fill-rule:nonzero;stroke:none"
         id="path42" /><path
         d="m 2651.74,12.9844 h 43.72 v 92.0626 c 5.91,4.133 14.66,8.25 22.12,8.25 7.45,0 13.1,-3.859 13.1,-12.625 V 12.9844 h 43.73 v 89.2346 c 0,33.258 -19.29,48.476 -41.93,48.476 -13.1,0 -28.03,-5.414 -39.59,-15.468 v 12.89 h -41.15 V 12.9844"
         style="fill:#231f20;fill-opacity:1;fill-rule:nonzero;stroke:none"
         id="path44" /><path
         d="m 2427.05,121.813 v 34.296 h 29.06 c 7.2,0 17.74,-3.609 17.74,-17.281 0,-13.664 -11.06,-17.015 -17.74,-17.015 z m 0,-71.4302 v 34.0391 h 34.45 c 6.44,0 16.72,-3.6094 16.72,-16.7578 0,-13.9297 -10.79,-17.2813 -16.72,-17.2813 z m -43.72,-37.3984 h 80.5 c 32.15,0 63.26,14.9687 63.26,52.0937 0,20.6328 -10.8,34.8125 -26.23,43.0629 11.31,8.265 19.3,20.382 19.3,36.359 0,34.297 -29.07,49.008 -59.68,49.008 h -77.15 V 12.9844"
         style="fill:#231f20;fill-opacity:1;fill-rule:nonzero;stroke:none"
         id="path46" /><path
         d="m 2548.02,12.9844 h 43.72 v 68.8594 c 11.83,14.9609 29.53,23.9762 50.1,26.0472 l -7.71,42.656 c -22.63,-3.609 -37.5,-19.961 -44.96,-40.594 v 38.164 h -41.15 V 12.9844"
         style="fill:#231f20;fill-opacity:1;fill-rule:nonzero;stroke:none"
         id="path48" /><path
         d="m 3036.07,272.953 h 43.85 v 190.813 h -43.85 V 272.953"
         style="fill:#231f20;fill-opacity:1;fill-rule:nonzero;stroke:none"
         id="path50" /></g></g></svg>
