<svg xmlns="http://www.w3.org/2000/svg" width="233.497" height="87.867" viewBox="0 0 233.497 87.867">
  <g id="Gruppe_46" data-name="Gruppe 46" transform="translate(-39.999 -30.902)">
    <path id="Pfad_12" data-name="Pfad 12" d="M11.215,5.186C7.255-.067.221-1.739-6.05-1.184a21.006,21.006,0,0,0-11,3.99A59.216,59.216,0,0,1-15.8-9.022h-3.524a35.06,35.06,0,0,1,.636,3.488,77.179,77.179,0,0,1,.631,9.118A23.56,23.56,0,0,0-21.467,7c-.081-.049-.161-.1-.24-.149-2.708-1.748-3.939-4.87-4.523-7.954a6.871,6.871,0,0,0,3.748-8.16A12.515,12.515,0,0,0-24.5-13.007c.013-.021.024-.043.036-.064a16.7,16.7,0,0,1,9.858-7.283,10.468,10.468,0,0,0,1.964,3.534c4.489,5.308,13.477,5.282,17.789.024.636-.719,1.165-1.525,1.725-2.3l-.424-.285c-.126.188-.266.367-.406.545a7.9,7.9,0,0,1-3.906,2.4A8.629,8.629,0,0,1-4.8-17.411c-1.5-.949-2.867-2.65-2.506-4.429a21.319,21.319,0,0,0-5.469-.912,27.211,27.211,0,0,0-11.4,2.005A16.487,16.487,0,0,0-29.272-17.4a21.047,21.047,0,0,0-6.673-2.637,18.389,18.389,0,0,1,4.216-5.34,21.163,21.163,0,0,1,4.489-2.811,29.7,29.7,0,0,1,24.955-.529C1.621-26.947,5.4-24.49,7.83-20.887c3.451,5.041,2.771,11.315-.953,16l.537.418a15.756,15.756,0,0,0,3.362-8.247c.777-9.594-8.527-16.191-16.678-18.9a29.8,29.8,0,0,0-22.054,1.963,22.756,22.756,0,0,0-4.789,3.111,19.324,19.324,0,0,0-2.337,2.529A17.258,17.258,0,0,0-37.341-20.3a24.179,24.179,0,0,0-3.1-.274,36.28,36.28,0,0,0-15.284,3.087,24.337,24.337,0,0,0-12,10.076c-3.811,6.467-4.815,15.181-1.081,21.9a17.013,17.013,0,0,0,3.378,4.26c-2.1,5.693-1.082,12.462,3.273,16.846A16.506,16.506,0,0,0-58.7,38.291a13.9,13.9,0,0,0,3.534,9.993c5.092,5.793,13.527,7.088,20.631,4.7a12.865,12.865,0,0,0,5.788-3.751,19.911,19.911,0,0,0,6.133,3.86C-14.95,56.133-5.405,55.653,1.135,50.3A15.08,15.08,0,0,0,6.8,39.488a9.843,9.843,0,0,0-1.019-5.1,14.85,14.85,0,0,0,5.961-9.571,15.559,15.559,0,0,0-.277-5.765,10.068,10.068,0,0,0,2.3-5.907,12.211,12.211,0,0,0-2.546-7.956M-18.043,4.5c.022,1.2.035,2.4.047,3.577a8.13,8.13,0,0,1-2.851-.739,22.711,22.711,0,0,1,2.8-2.839M-6.469,14.4c-2.418,2.078-1.339,5.657.824,7.49,2.8,2.422,6.627,2.474,10.056,1.438,0,.208,0,.417-.014.623a16.113,16.113,0,0,1-1.6,6.1q-.182.382-.389.762a14.58,14.58,0,0,0-4.669-1.842,26.691,26.691,0,0,0-5.4-.61,16.553,16.553,0,0,0-7.966,1.623,11.866,11.866,0,0,0-1.709,1.056v-1.7c.009-3.049.028-6.2.056-9.381a20.857,20.857,0,0,0,5.851-4.409l-.354-.368a22,22,0,0,1-5.486,3.593c.01-1.071.021-2.145.032-3.217a1.952,1.952,0,0,0,1.651-1.929,1.954,1.954,0,0,0-1.6-1.922q.017-1.276.036-2.543c.119-.01.238-.023.358-.037.886-.091,1.806-.276,2.691-.358,7.158-.836,15.4,1.76,17.7,9.172a17.64,17.64,0,0,1,.762,3.893,11.679,11.679,0,0,1-5.992.735,6.834,6.834,0,0,1-4.949-3.3,4.017,4.017,0,0,1-.271-3.518,3.346,3.346,0,0,1,.7-1.008l-.307-.337m-23.818,8.039q-.047-.545-.123-1.093a20.383,20.383,0,0,0,10.544-.332,17.845,17.845,0,0,0,2.014-.781q.047,5.577.053,11.17A9.733,9.733,0,0,0-18.916,32.5c-.77-.873-1.54-1.755-2.378-2.594a24.224,24.224,0,0,0-8.928-5.743c0-.575-.02-1.148-.066-1.716m12.491,11.3c-.23-.249-.457-.5-.683-.754a8.928,8.928,0,0,1,.682-.735q0,.745,0,1.489m-.019,4.744q-.01,1.545-.025,3.09a8.418,8.418,0,0,1-.647-.623,5.645,5.645,0,0,1-1.573-3.248c.73.288,1.483.551,2.246.781m.482-6.654c2.594-2.2,6.306-3.018,9.665-2.933A21.374,21.374,0,0,1,.133,30.3a11.791,11.791,0,0,1,1.975,1.033c-2.052,3.5-5.518,6.647-9.657,7.019a12.288,12.288,0,0,1-8.329-2.77,19.126,19.126,0,0,1-1.453-1.353q0-1.2,0-2.4M-23.5-10.058A6.206,6.206,0,0,1-24.511-3.23a5.831,5.831,0,0,1-1.849,1.381c-.079-.494-.141-.985-.192-1.466a15.741,15.741,0,0,1,1.682-9.034,17.194,17.194,0,0,1,1.367,2.29m-6.3-6.814A15.734,15.734,0,0,0-34.08-6.788a13.465,13.465,0,0,0,.105,2.719A15.357,15.357,0,0,1-35.98-7.247a14.326,14.326,0,0,1-1.43-8.259A14.072,14.072,0,0,1-36.345-19.2,19.3,19.3,0,0,1-29.8-16.872M-69.005,9.864A23.117,23.117,0,0,1-66.266-6.545c3.031-5.186,7.6-8.327,13.119-10.464A32.153,32.153,0,0,1-37.71-19.394a14.56,14.56,0,0,0-.688,8.312,16.735,16.735,0,0,0,4.73,8.562A15.943,15.943,0,0,0-27.963,6,15.346,15.346,0,0,0-22.7,8.662a26.6,26.6,0,0,0-3.108,6.152l.652.2A23.364,23.364,0,0,1-22.944,10.3q.446-.745.948-1.457a15.275,15.275,0,0,0,4.014.377c.01.851.022,1.687.041,2.5a1.956,1.956,0,0,0-1.551,1.912,1.954,1.954,0,0,0,1.6,1.921q.017,1.74.034,3.482A18.472,18.472,0,0,1-27.6,20.255a25.26,25.26,0,0,1-3.139-.636,12.092,12.092,0,0,0-2.717-5.386l-.374.347a11.109,11.109,0,0,1,2.416,4.847q-1.2-.356-2.362-.816A20.685,20.685,0,0,1-39.592,14.8C-38,11.11-38.245,4.254-40.805,1.356c-1.415-1.712-3.853-2.408-5.113-.107A7.489,7.489,0,0,0-46.631,4.7c.023,4.414,2.652,8.351,5.808,11.274-.208.333-.425.66-.642.985a11.137,11.137,0,0,1-3.9,3.6,17.41,17.41,0,0,1-6.194,1.694,16.7,16.7,0,0,1-10.257-2.327,15.088,15.088,0,0,1-2.6-1.985,15.05,15.05,0,0,1,5.125-6.5,6.714,6.714,0,0,0,1.5,1.086,8.192,8.192,0,0,0,6.918.267,3.369,3.369,0,0,0,2.221-2.272c.192-1.824-2.058-2.277-3.442-2.24a13.064,13.064,0,0,0-6.475,1.956,6.123,6.123,0,0,1-1.182-1.768A12.019,12.019,0,0,1-60.119.314c2.285-7.049,11.69-9.571,17.825-6a11.608,11.608,0,0,1,3.259,2.754l.395-.324a12.369,12.369,0,0,0-3.406-2.865A14.057,14.057,0,0,0-54.96-6.461,11.741,11.741,0,0,0-61.806,4.477,10,10,0,0,0-59.71,11,16.8,16.8,0,0,0-64.9,17.464a16.061,16.061,0,0,1-4.107-7.6m26.932,2.313A14.026,14.026,0,0,1-45.5,4.656c-.108-1.417-.053-3.825,1.669-4.173a3.187,3.187,0,0,1,2.615,1.234c2.489,2.672,2.636,9.153,1.344,12.417-.038.1-.08.193-.122.288a25.9,25.9,0,0,1-2.081-2.245m-16.034-1.511A10.638,10.638,0,0,1-51.1,9.217c1.371.3,2,1.115.631,2.03a6.153,6.153,0,0,1-2.82.851,6.627,6.627,0,0,1-4.819-1.432m-6.783,8.56a18.222,18.222,0,0,0,17.816,2.928,12.031,12.031,0,0,0,6.668-5.806l.184.162A21.369,21.369,0,0,0-34.4,20.151c.7.276,1.446.52,2.165.73q.571.168,1.152.313c.057.433.1.866.128,1.3q.047.708.037,1.423a23.966,23.966,0,0,0-6.353-1.234,22.953,22.953,0,0,0-16.374,5.729,14.747,14.747,0,0,0-4.847,8.04,16.4,16.4,0,0,1-2.924-2.333A14.69,14.69,0,0,1-64.89,19.226m32.37,11.939a13.925,13.925,0,0,1-8.83,8.01,19.836,19.836,0,0,1-9.4.194A22.628,22.628,0,0,1-58,36.743c.632-3.449,3.413-6.146,6.511-7.536a16.018,16.018,0,0,1,6.1-1.359A26.149,26.149,0,0,1-33.84,30.519c.447.207.884.425,1.32.646m1.1,9.724c.384-1.991,2.178-2.446,3.248-.634a7.522,7.522,0,0,1,.515,5.011,7.477,7.477,0,0,1-1.144,2.6,8.035,8.035,0,0,1-2.62-6.976m37.17-.17c-1.5,8.043-9.956,12.4-17.576,12.521C-17,53.332-22.41,52.347-26.8,49.484a12.985,12.985,0,0,1-1.368-1.031,7.931,7.931,0,0,0,1.229-3.04,8.252,8.252,0,0,0-.72-5.469c-.836-1.447-2.641-2.037-3.774-.523-1.078,1.549-.78,3.819-.229,5.5A11.284,11.284,0,0,0-29.374,48.6c-2.506,2.823-6.986,3.86-10.679,3.942a20.023,20.023,0,0,1-7.606-1.17c-5.478-2.057-10.628-6.729-10.532-12.786a23.631,23.631,0,0,0,8.26,2.573c4.474.653,9.361.019,13.064-2.74A15.725,15.725,0,0,0-31.674,31.6c3.611,1.918,6.954,4.172,10.861,5.8a7.711,7.711,0,0,0,2.958,5.652q-.023,1.867-.051,3.729h.681q-.03-1.632-.047-3.277c.024.017.047.036.073.053,5.305,3.8,13.433,3.679,18.069-1.138a12,12,0,0,0,1.676-2.19l-.423-.287C-1.628,45.013-8.636,46.175-14.225,43.7a14.411,14.411,0,0,1-3.065-1.681q-.016-1.691-.025-3.385a25.617,25.617,0,0,0,2.792.629,39.226,39.226,0,0,0,6.323.46,15.649,15.649,0,0,0,4.914-.815A29.251,29.251,0,0,0,5.2,34.818a9.478,9.478,0,0,1,.55,5.9m5.12-23.641a16.883,16.883,0,0,0-.89-2.012C6.756,8.987.517,6.8-5.984,6.954a61.583,61.583,0,0,0-8.254.768c-.468.073-1.537.241-2,.306a8.372,8.372,0,0,1-.9.067q.024-1.6.051-3.166.007-.6.017-1.207A19.412,19.412,0,0,1-11.086.647c7.195-2.161,16.362-.911,20.994,5.5,2.271,3.116,3,7.556.964,10.932" transform="translate(111.146 63.804)"/>
    <path id="Pfad_13" data-name="Pfad 13" d="M17.921,4.415V-.673h4.262v-.7H17.921V-5.858h4.9v-.72h-6.8v11.7h6.979v-.7Zm-11.494.7h6.409v-.7H8.32V-6.578H6.426Zm-9.6,0H3.235v-.7H-1.28V-6.578H-3.174Zm-10.4,0H-6.59v-.7h-5.085V-.673h4.264v-.7h-4.264V-5.858h4.9v-.72h-6.8Zm0-18.492H-6.59v-.7h-5.085v-5.088h4.264v-.7h-4.264V-24.35h4.9v-.72h-6.8Zm-3.078,10.4c0-2.535-1.794-3.607-4.313-3.607h-3.724l.016,11.7h1.878V.5h2.083c2.937,0,4.061-1.844,4.061-3.473m-2.079-.017a2.5,2.5,0,0,1-2.553,2.8h-1.512V-5.858h1.461c1.646,0,2.6.99,2.6,2.87m-.779-10.386h1.878v-11.7h-1.878v5.2h-4.6v-5.2H-26v11.7h1.9v-5.79h4.6ZM-29.794,5.117h2.029l-4.06-11.7h-1.661l-4.078,11.7h.957l.939-2.769h4.934Zm-1.175-3.489h-4.464l2.216-6.514h.083Zm-4.72-21.01c0-3.995,1.058-5.154,2.417-5.154.84,0,1.848.756,1.848,2.518h1.743c-.034-1.611-1.123-3.153-3.591-3.153-2.686,0-4.48,1.71-4.48,6.175,0,4.265,1.459,5.74,4.448,5.74,2.232,0,3.724-1.123,3.775-3.556h-1.794c0,1.661-.47,2.887-1.931,2.887-1.779,0-2.434-1.477-2.434-5.456m-2.066,31.3v9.292l-.085.034-5.808-9.326h-1.812v11.7h.871V13.993h.051l6.027,9.616h1.644v-11.7Zm-1.6-6.8-4.179-7.433,3.474-4.262h-1.073L-46.507-.017V-6.578h-1.878v11.7h1.878V1.291l1.779-2.181,3.391,6.007Zm-1.668-21.645a2.127,2.127,0,0,0,0-.47c-.05-1.562-.938-2.636-3.337-3.341-1.881-.553-3.056-.94-3.056-2.2a1.857,1.857,0,0,1,1.914-1.981c1.427,0,2.1,1.074,2.1,2.568h1.878c.068-1.695-1.073-3.2-3.876-3.2a3.431,3.431,0,0,0-3.674,3.1,3.649,3.649,0,0,0,.034.6c.168,1.83,1.727,2.267,4.027,2.938,1.88.537,2.2,1.444,2.2,2.283a2.255,2.255,0,0,1-2.334,2.316c-1.562,0-2.485-1.023-2.385-3.071h-1.844c-.218,2.333,1.676,3.724,4.178,3.724,2.065,0,4.095-1.123,4.178-3.271M-51.914,1.964a2.127,2.127,0,0,0,0-.47c-.05-1.562-.938-2.636-3.337-3.341-1.881-.553-3.056-.94-3.056-2.2a1.858,1.858,0,0,1,1.914-1.981c1.427,0,2.1,1.075,2.1,2.569h1.878c.067-1.695-1.073-3.2-3.875-3.2a3.431,3.431,0,0,0-3.675,3.1,3.649,3.649,0,0,0,.034.6c.168,1.83,1.727,2.267,4.027,2.938,1.88.537,2.2,1.444,2.2,2.283A2.255,2.255,0,0,1-56.04,4.583c-1.562,0-2.485-1.025-2.385-3.072h-1.844c-.218,2.334,1.676,3.725,4.178,3.725,2.065,0,4.095-1.123,4.178-3.271m-2.872-15.339h1.878v-11.7h-1.878Zm-3.562-3.153a2.126,2.126,0,0,0,0-.47c-.05-1.562-.939-2.636-3.339-3.341-1.88-.553-3.056-.94-3.056-2.2a1.858,1.858,0,0,1,1.915-1.981c1.427,0,2.1,1.074,2.1,2.568h1.878c.067-1.695-1.073-3.2-3.876-3.2a3.431,3.431,0,0,0-3.674,3.1,3.649,3.649,0,0,0,.034.6c.167,1.83,1.726,2.267,4.027,2.938,1.88.537,2.2,1.444,2.2,2.283a2.254,2.254,0,0,1-2.333,2.316c-1.562,0-2.485-1.023-2.385-3.071H-66.7c-.219,2.333,1.676,3.724,4.178,3.724,2.065,0,4.095-1.123,4.178-3.271m-13.76,3.153h1.878v-11.7h-1.878v5.2h-4.6v-5.2H-78.6v11.7h1.894v-5.79h4.6Zm-5.531,6.8-4.078,11.7h.957l.939-2.769h4.934l.94,2.769h2.029l-4.06-11.7Zm-1.947,8.206,2.216-6.514h.083l2.165,6.514Zm-8.705-21.01c0-3.995,1.058-5.154,2.418-5.154.839,0,1.848.756,1.848,2.518h1.743c-.034-1.611-1.124-3.153-3.591-3.153-2.686,0-4.48,1.71-4.48,6.175,0,4.265,1.459,5.74,4.446,5.74,2.233,0,3.725-1.123,3.775-3.556h-1.793c0,1.661-.47,2.887-1.931,2.887-1.78,0-2.436-1.477-2.436-5.456m-6.636,6.007h2.03l-4.06-11.7h-1.662l-4.077,11.7h.957l.939-2.769h4.933ZM-96.1-16.862h-4.464l2.213-6.515h.085Zm.653-10.189a.941.941,0,0,0-.939-.955.941.941,0,0,0-.939.955.934.934,0,0,0,.939.923.934.934,0,0,0,.939-.923m-2.87,0a.941.941,0,0,0-.939-.955.944.944,0,0,0-.955.955.938.938,0,0,0,.955.923.934.934,0,0,0,.939-.923m3.861,20.474h-8.524v.72h3.289V5.117h1.878V-5.858h3.357Zm-10.386,24.449c0-3.442-1.526-5.957-5.5-5.957h-3.036v11.7h2.936c4,0,5.605-2.348,5.605-5.738m-2.028-.085c0,3.559-1.36,5.12-3.392,5.12h-1.226V12.633h1.226c1.645,0,3.392,1.025,3.392,5.154m1.557-15.822a2.127,2.127,0,0,0,0-.47c-.05-1.562-.939-2.636-3.339-3.341-1.88-.553-3.056-.94-3.056-2.2a1.859,1.859,0,0,1,1.915-1.981c1.427,0,2.1,1.075,2.1,2.569h1.878c.067-1.695-1.073-3.2-3.876-3.2a3.429,3.429,0,0,0-3.674,3.1,3.649,3.649,0,0,0,.034.6c.167,1.83,1.726,2.267,4.027,2.938,1.88.537,2.2,1.444,2.2,2.283a2.254,2.254,0,0,1-2.334,2.316c-1.56,0-2.484-1.025-2.384-3.072h-1.844c-.219,2.334,1.676,3.725,4.178,3.725,2.065,0,4.095-1.123,4.178-3.271m0-18.492a2.127,2.127,0,0,0,0-.47c-.05-1.562-.939-2.636-3.339-3.341-1.88-.553-3.056-.94-3.056-2.2a1.858,1.858,0,0,1,1.915-1.981c1.427,0,2.1,1.074,2.1,2.568h1.878c.067-1.695-1.073-3.2-3.876-3.2a3.429,3.429,0,0,0-3.674,3.1,3.649,3.649,0,0,0,.034.6c.167,1.83,1.726,2.267,4.027,2.938,1.88.537,2.2,1.444,2.2,2.283a2.254,2.254,0,0,1-2.334,2.316c-1.56,0-2.484-1.023-2.384-3.071h-1.844c-.219,2.333,1.676,3.724,4.178,3.724,2.065,0,4.095-1.123,4.178-3.271m7.653,28.442h-3.473v11.7h1.9v-5.2h1.394l2.854,5.2h2.063l-3.136-5.4a3.158,3.158,0,0,0,2.415-3.1c0-1.831-1.191-3.188-4.011-3.188m-.235.719c1.243,0,2.183.874,2.183,2.519a2.279,2.279,0,0,1-2.25,2.5h-1.276V12.633Zm4.536-7.515h.956l.94-2.769h4.933l.94,2.769h2.03l-4.061-11.7h-1.661Zm2.131-3.489,2.215-6.514h.083l2.165,6.514Zm8.32,10.286h-6.8v11.7h6.981v-.7h-5.085V17.819h4.262v-.7h-4.262V12.633h4.9ZM-78.16,20h-1.845c-.218,2.334,1.677,3.725,4.179,3.725,2.065,0,4.095-1.123,4.178-3.271a2.277,2.277,0,0,0,0-.47c-.051-1.562-.939-2.636-3.339-3.341-1.88-.553-3.056-.94-3.056-2.2a1.858,1.858,0,0,1,1.915-1.981c1.427,0,2.1,1.074,2.1,2.569h1.878c.067-1.7-1.073-3.2-3.876-3.2a3.43,3.43,0,0,0-3.675,3.1,3.649,3.649,0,0,0,.034.6c.168,1.83,1.727,2.267,4.029,2.938,1.88.537,2.2,1.444,2.2,2.283a2.254,2.254,0,0,1-2.334,2.316c-1.562,0-2.484-1.025-2.384-3.072m15.541-26.58h-8.524v.72h3.29V5.117h1.878V-5.858h3.356Zm-2.465,18.492H-68.12v11.7h2.935c4,0,5.605-2.348,5.605-5.738,0-3.442-1.526-5.957-5.5-5.957m-1.143.719H-65c1.646,0,3.392,1.025,3.392,5.154,0,3.559-1.36,5.12-3.392,5.12h-1.226Zm17.151-.719h-6.8v11.7h6.979v-.7h-5.085V17.819h4.264v-.7h-4.264V12.633h4.9Z" transform="translate(250.49 79.905)"/>
    <path id="Pfad_14" data-name="Pfad 14" d="M0,11.965H233.5V-75.9H0Z" transform="translate(40 106.805)" fill="none"/>
  </g>
</svg>
