<?xml version="1.0" encoding="UTF-8"?><svg id="Ebene_1" xmlns="http://www.w3.org/2000/svg" xmlns:xlink="http://www.w3.org/1999/xlink" viewBox="0 0 404.62 136.89"><defs><style>.cls-1{fill:none;}.cls-2{clip-path:url(#clippath);}.cls-3{fill:#181715;}</style><clipPath id="clippath"><rect class="cls-1" x="0" y="0" width="404.62" height="136.89"/></clipPath></defs><g class="cls-2"><path class="cls-3" d="m320.05,134.86v.58h35.28l1.81-18.33h-.58c-2.03,13.33-4.42,17.32-15.87,17.32h-10v-24.49h7.25c6.01,0,8.11,2.46,9.27,10.14h.58v-21.23h-.58c-1.16,7.68-3.26,10.07-9.27,10.07h-7.25v-23.18h10.22c9.64,0,11.74,3.48,14.35,14.49h.58l-1.59-15.5h-34.2v.58c4.78.22,5.72,1.74,5.72,5.72v37.38c0,5.22-.94,6.23-5.72,6.45m-19.55-49.12c8.91,0,14.2,3.69,14.2,12.97s-5.29,12.97-14.2,12.97h-5.14v-25.94h5.14Zm1.38-1.01h-17.17v.58c4.78.22,5.72,1.74,5.72,5.72v37.38c0,5.22-.94,6.23-5.72,6.45v.58h18.91v-.58c-6.88-.22-8.26-1.3-8.26-6.81v-15.36h6.52c10,0,18.26-3.84,18.26-13.98s-8.26-13.98-18.26-13.98m-61.84,25.36c0-16.81,6.38-25.43,18.69-25.43s18.69,8.62,18.69,25.43-6.59,25.43-18.69,25.43-18.69-8.98-18.69-25.43m-5.65,0c0,15.43,10.29,26.81,24.34,26.81s24.34-11.37,24.34-26.81-10.29-26.81-24.34-26.81-24.34,11.37-24.34,26.81m-34.89,8.04h-.58v15.14c4.27,2.25,9.56,3.62,14.63,3.62,10.65,0,17.24-5.43,17.24-14.63,0-6.67-3.55-10.58-10.51-13.62l-7.9-3.55c-7.39-3.26-10.22-5.36-10.22-10.72,0-6.23,4.64-9.71,11.59-9.71,9.42,0,13.91,5.51,14.63,16.74h.51v-15c-5-2.54-9.71-3.12-13.33-3.12-9.85,0-16.45,5-16.45,13.26,0,7.1,3.91,10.79,11.37,13.98l6.88,3.04c6.45,2.75,9.56,5.43,9.56,11.01,0,7.03-4.49,10.94-11.74,10.94-10.14,0-15-7.03-15.72-17.39m-26.19-32.24v42.17c0,5.51-1.38,6.59-8.26,6.81v.58h21.44v-.58c-6.88-.22-8.26-1.3-8.26-6.81v-42.17h3.98c8.19,0,11.59,1.09,12.9,15.29h.58v-17.82h-.36c-1.01,1.01-2.46,1.38-5.29,1.38h-28.54c-2.83,0-4.27-.36-5.29-1.38h-.36v17.82h.58c1.3-14.2,4.71-15.29,12.9-15.29h3.98Zm-84.62,29.34l9.56-27.24,9.64,27.24h-19.2Zm36.01,0l9.49-27.24,9.42,27.24h-18.91Zm-50.35,19.63v.58h15.21v-.58c-5.14-.22-7.25-1.52-5.07-7.75l3.69-10.43h20.21l3.98,11.37c1.67,4.85,2.1,6.59-3.04,6.81v.58h15.43v-.58c-7.1-.15-5-5.65-3.91-8.77l3.33-9.42h19.92l3.98,11.37c1.88,5.29,1.16,6.59-3.98,6.81v.58h16.08v-.58c-3.48-.29-4.56-.94-6.52-6.45l-15.72-43.69h-4.27l-13.26,37.17c-.36,1.09-2.46,6.96-2.54,8.62h-.22c-.07-1.67-2.83-9.64-3.55-11.74l-12.03-34.05h-4.27l-15.36,42.67c-1.96,5.51-3.77,7.03-8.11,7.46m-34.41-51.51h-.36v17.82h.58c1.3-14.2,4.71-15.29,12.9-15.29h3.98v42.17c0,5.51-1.38,6.59-8.26,6.81v.58h21.44v-.58c-6.88-.22-8.26-1.3-8.26-6.81v-42.17h3.98c8.19,0,11.59,1.09,12.9,15.29h.58v-17.82h-.36c-1.01,1.01-2.46,1.38-5.29,1.38h-28.54c-2.83,0-4.27-.36-5.29-1.38M6.13,118.12h-.58v15.14c4.27,2.25,9.56,3.62,14.63,3.62,10.65,0,17.24-5.43,17.24-14.63,0-6.67-3.55-10.58-10.5-13.62l-7.9-3.55c-7.39-3.26-10.22-5.36-10.22-10.72,0-6.23,4.64-9.71,11.59-9.71,9.42,0,13.91,5.51,14.63,16.74h.51v-15c-5-2.54-9.71-3.12-13.33-3.12-9.85,0-16.45,5-16.45,13.26,0,7.1,3.91,10.79,11.37,13.98l6.88,3.04c6.45,2.75,9.56,5.43,9.56,11.01,0,7.03-4.49,10.94-11.74,10.94-10.14,0-15-7.03-15.72-17.39M67.45,26.8v-.58h-13.62v.58c4.06.07,5.72,1.23,5.72,3.91,0,1.16-.29,2.54-.87,4.27l-10.94,33.18-12.17-35.14c-.36-1.01-.51-1.96-.51-2.68,0-2.25,1.52-3.4,5.07-3.55v-.58h-16.59v.58c4.06.15,5.14,1.67,6.96,6.74l2.25,6.45-9.35,28.4-11.3-33.4c-.58-1.74-.87-3.19-.87-4.35,0-2.61,1.67-3.69,5.51-3.84v-.58H0v.58c3.33.15,4.49,1.67,6.52,7.53l15.14,43.32h.29l11.59-35.5,12.46,35.5h.29l13.98-42.89c1.81-5.58,3.48-7.82,7.17-7.97m2.4,50.13h16.37v-.58c-4.78-.22-5.72-1.23-5.72-6.45v-37.38c0-4.56.94-5.51,5.72-5.72v-.58h-16.37v.58c4.78.22,5.72,1.74,5.72,5.72v37.38c0,5.22-.94,6.23-5.72,6.45v.58Zm54.71,0l1.81-18.33h-.58c-2.03,13.33-4.42,17.32-15.87,17.32h-10v-24.49h7.24c6.01,0,8.11,2.46,9.27,10.14h.58v-21.23h-.58c-1.16,7.68-3.26,10.07-9.27,10.07h-7.24v-23.18h10.22c9.64,0,11.74,3.48,14.34,14.49h.58l-1.59-15.5h-34.2v.58c4.78.22,5.72,1.74,5.72,5.72v37.38c0,5.22-.94,6.23-5.72,6.45v.58h35.28Zm54.22-50.13v-.58h-16.37v.58c5.65.22,7.82,2.03,7.82,8.04v32.17l-30.72-40.79h-10.22v.58c3.62.07,5.36,1.74,7.1,3.98v36.73c0,6.52-1.88,8.69-7.1,8.84v.58h16.37v-.58c-5.65-.22-7.82-2.03-7.82-8.84v-34.78l33.62,44.92h.22v-42.82c0-5.72,1.88-7.82,7.1-8.04m37.98,50.13l1.81-18.33h-.58c-2.03,13.33-4.42,17.32-15.87,17.32h-10v-24.49h7.25c6.01,0,8.11,2.46,9.27,10.14h.58v-21.23h-.58c-1.16,7.68-3.26,10.07-9.27,10.07h-7.25v-23.18h10.22c9.64,0,11.74,3.48,14.35,14.49h.58l-1.59-15.5h-34.2v.58c4.78.22,5.72,1.74,5.72,5.72v37.38c0,5.22-.94,6.23-5.72,6.45v.58h35.28Zm19.88-26.44h-4.49v-23.26h6.16c11.01,0,13.04,4.71,13.04,11.23,0,8.11-3.91,12.03-14.71,12.03m20.14,26.44h9.27v-.58c-3.69-.36-5.94-2.83-8.11-7.68l-4.2-9.35c-2.61-5.8-7.46-8.26-13.11-8.26v-.29c8.48,0,16.16-3.91,16.16-12.39s-4.93-12.17-17.82-12.17h-17.46v.58c4.78.22,5.72,1.74,5.72,5.72v37.38c0,5.22-.94,6.23-5.72,6.45v.58h16.37v-.58c-4.78-.22-5.72-1.23-5.72-6.45v-18.4h5c6.45,0,8.33,1.52,11.52,8.4l4.06,8.84c1.16,2.54,2.97,6.37,4.06,8.19m87.74-26.99v-9.87h12.25v9.87h-3.1v-5.59c0-1.56-1.15-2.67-2.86-2.76-.11,0-.23,0-.34,0-1.71.09-2.86,1.2-2.86,2.76v5.59h-3.09Zm3.59-4.34c0-.7.56-.98,1.08-1.01.04,0,.09,0,.13,0,.52.03,1.08.31,1.08,1.01v4.34h-2.29v-4.34Zm2.78,0c0-.7.56-.98,1.08-1.01.04,0,.09,0,.13,0,.52.03,1.08.31,1.08,1.01v4.34h-2.29v-4.34Zm2.27-6.03h-2.29v-4.6h2.29v4.6Zm-2.29-7.13h2.29v2.04h-2.29v-2.04Zm-.5,7.13h-2.29v-4.6h2.29v4.6Zm-2.29-7.13h2.29v2.04h-2.29v-2.04Zm8.68,7.13h-3.1v-7.37c0-1.78-1.22-3.18-2.82-3.26-.11,0-.21,0-.32,0-1.72.09-2.92,1.43-2.92,3.26v7.37h-3.09v-12.15h12.25v12.15Zm0-12.65h-12.25v-.96h12.25v.96Zm-12.65-5.98h-1.06v-.84h1.51c-.24.23-.37.52-.45.84m-.32-1.87h-7.25v-1.61h6.13l1.12,1.61Zm-1.24-2.11h-6.01v-.96h6.01v.96Zm0-1.46h-2.23c.01-.21.06-1.21.08-1.35.03-.39.15-.51.87-.51.16,0,.28-.13.28-.28s-.13-.28-.28-.28c-.03,0-.84-.04-.84-.61v-.54c0-.48-.4-.87-.88-.87s-.87.39-.88.87v.54c0,.58-.8.61-.84.61-.16,0-.28.13-.28.28s.13.28.28.28c.72,0,.84.11.87.51.01.14.07,1.14.08,1.35h-2.23v-2.78s0,0,0,0v-2.19h6.01v4.97Zm-6.01,4.6h6.01v.84h-6.01v-.84Zm0,1.34h6.01v8.54h-6.01v-8.54Zm0,9.03h6.01v8.04h-6.01v-8.04Zm0,8.54h6.01v11.92h-6.01v-11.92Zm6.51-17.57h.99c-.02.26-.02.52-.02.77v7.76h-.97v-8.54Zm0,9.03h.97v8.04h-.97v-8.04Zm0,8.54h.97v11.92h-.97v-11.92Zm-7,11.92h-1.84v-6.24h1.84v6.24Zm0-6.74h-1.84v-.37c0-1.48-1.35-2.67-3.01-2.67s-3.01,1.2-3.01,2.67v.37h-1.84v-.37c0-1.48-1.35-2.67-3.01-2.67s-3.01,1.2-3.01,2.67v.37h-1.83v-.37c0-1.48-1.35-2.67-3.01-2.67h0c-1.66,0-3.01,1.2-3.01,2.67v.37h-1.84v-.37c0-1.48-1.35-2.67-3.01-2.67s-3.01,1.2-3.01,2.67v.37h-1.84v-.37c0-1.48-1.35-2.67-3.01-2.67s-3.01,1.2-3.01,2.67v.37h-1.84v-5.17h41.18v5.17Zm0-5.67h-41.18v-.96h41.18v.96Zm0-1.46h-1.84v-6.58h1.84v6.58Zm-4.66-4.35c.33,0,.6.24.6.54v3.82h-1.21v-3.82c0-.3.27-.54.6-.54m-3.21,4.35h-1.84v-6.58h1.84v6.58Zm-4.76-4.35c.33,0,.6.24.6.54v3.82h-1.21v-3.82c0-.3.27-.54.6-.54m-3.11,4.35h-1.83v-6.58h1.83v6.58Zm-4.85-4.35c.33,0,.6.24.6.54v3.82h-1.21v-3.82c0-.3.27-.54.6-.54m-3.01,4.35h-1.84v-6.58h1.84v6.58Zm-4.95-4.35c.33,0,.6.24.6.54v3.82h-1.21v-3.82c0-.3.27-.54.6-.54m-2.92,4.35h-1.84v-6.58h1.84v6.58Zm-5.05-4.35c.33,0,.6.24.6.54v3.82h-1.21v-3.82c0-.3.27-.54.6-.54m36.52-2.72h-1.84v-1.69c0-1.48-1.35-2.67-3.01-2.67s-3.01,1.2-3.01,2.67v1.69h-1.84v-1.69c0-1.48-1.35-2.67-3.01-2.67s-3.01,1.2-3.01,2.67v1.69h-1.83v-1.69c0-1.48-1.35-2.67-3.01-2.67s-3.01,1.2-3.01,2.67v1.69h-1.84v-1.69c0-1.48-1.35-2.67-3.01-2.67s-3.01,1.2-3.01,2.67v1.69h-1.84v-1.69c0-1.48-1.35-2.67-3.01-2.67s-3.01,1.2-3.01,2.67v1.69h-1.84v-8.54h41.18v8.54Zm0-9.03h-41.18v-.84h41.18v.84Zm0-1.87h-41.18v-1.61h41.18v1.61Zm0-2.11h-41.18v-2.53h41.18v2.53Zm0-3.03h-41.18v-.96h41.18v.96Zm0-1.46h-10.69v-5.23h-6.39v-1.96h-1.11c-.08-.78-.53-1.47-1.22-1.86.02-.08.03-.16.03-.25s0-.17-.03-.25h6.47c6.47,0,10.95,2.56,12.94,7.41v2.14Zm-12.94-10.05h-6.7c-.22-.28-.56-.46-.95-.46h0s0,0,0,0c0,0,0,0,0,0h0c-.38,0-.73.18-.95.47h-6.7v-.96h5.18V.5h4.93v.98h5.18v.96Zm-4.64,4.81h-6.03v-1.46h6.03v1.46Zm-2.45-3.56l.22.1c.61.28,1.03.85,1.12,1.5h-3.81c.09-.65.51-1.23,1.12-1.5l.22-.1-.09-.22c-.04-.09-.06-.18-.06-.28,0-.39.32-.72.71-.72.39,0,.71.32.71.72,0,.1-.02.19-.06.28l-.09.22Zm2.45,8.8h-6.03v-3.4h6.03v3.4Zm-11.16-3.2v3.2h-1.26v-4.74h18.81v4.74h-1.26v-3.2c0-.25-.24-.45-.53-.45s-.53.2-.53.45v3.2h-1.26v-3.2c0-.25-.24-.45-.53-.45s-.53.2-.53.45v3.2h-1.26v-3.9h-7.02v3.9h-1.26v-3.2c0-.25-.24-.45-.53-.45s-.53.2-.53.45v3.2h-1.26v-3.2c0-.25-.24-.45-.53-.45s-.53.2-.53.45m.49-6.35h6.47c-.02.08-.03.17-.03.25s0,.17.03.25c-.68.39-1.14,1.08-1.22,1.86h-1.11v1.96h-6.39v5.23h-10.69v-2.14c1.99-4.85,6.47-7.41,12.94-7.41m-12.94,27.55h1.84v6.58h-1.84v-6.58Zm0,14.21h1.84v6.24h-1.84v-6.24Zm7.87,0h1.84v6.24h-1.84v-6.24Zm7.87,0h1.84v6.24h-1.84v-6.24Zm7.87,0h1.83v6.24h-1.83v-6.24Zm7.86,0h1.84v6.24h-1.84v-6.24Zm-31.96-34.15v2.19s0,0,0,0v2.78h-2.23c.01-.21.07-1.21.08-1.35.03-.39.15-.51.87-.51.16,0,.28-.13.28-.28s-.13-.28-.28-.28c-.03,0-.84-.04-.84-.61v-.54c0-.48-.4-.87-.88-.87s-.87.39-.88.87v.54c0,.58-.8.61-.84.61-.16,0-.28.13-.28.28s.13.28.28.28c.72,0,.84.11.87.51.01.14.07,1.14.08,1.35h-2.23v-4.97h6.01Zm-6.01,5.47h6.01v.96h-6.01v-.96Zm-.12,1.46h6.13v1.61h-7.25l1.12-1.61Zm-.38,2.64v.84h-1.06c-.08-.32-.21-.61-.45-.84h1.51Zm-1.46,6.82h-12.25v-.96h12.25v.96Zm-12.25.5h12.25v12.15h-3.09v-7.37c0-1.83-1.2-3.17-2.92-3.26-.11,0-.21,0-.32,0-1.6.08-2.82,1.48-2.82,3.26v7.37s-3.09,0-3.09,0v-12.15Zm3.61,5.01h2.29v2.04h-2.29v-2.04Zm2.29,7.13h-2.29v-4.6h2.29v4.6Zm.5-7.13h2.29v2.04h-2.29v-2.04Zm2.29,7.13h-2.29v-4.6h2.29v4.6Zm-8.68.5h12.25v9.87h-3.09v-5.59c0-1.56-1.15-2.67-2.86-2.76-.11,0-.23,0-.34,0-1.71.09-2.86,1.2-2.86,2.76v5.59s-3.09,0-3.09,0v-9.87Zm3.59,5.53c0-.7.56-.98,1.08-1.01.04,0,.09,0,.13,0,.52.03,1.08.31,1.08,1.01v4.34h-2.29v-4.34Zm2.78,0c0-.7.56-.98,1.08-1.01.04,0,.09,0,.13,0,.52.03,1.08.31,1.08,1.01v4.34h-2.29v-4.34Zm6.35-24.15h.99v8.54h-.97v-7.76c0-.25,0-.52-.02-.77m.02,9.03h.97v8.04h-.97v-8.04Zm0,8.54h.97v11.92h-.97v-11.92Zm1.46-18.91h6.01v.84h-6.01v-.84Zm0,1.34h6.01v8.54h-6.01v-8.54Zm0,9.03h6.01v8.04h-6.01v-8.04Zm0,8.54h6.01v11.92h-6.01v-11.92Zm56.16,11.95h12.74v-25.5h-12.74v-3.25c0-1.3.08-2.1,1.6-2.1h.25v-1.04h-1.96l-1.35-1.94v-7.1h-6.59c-2.04-4.85-6.48-7.47-12.86-7.6V.98h-5.18v-.98h-5.92v.98h-5.18v1.46c-6.38.13-10.81,2.75-12.86,7.6h-6.59v7.1l-1.35,1.94h-1.96v1.03h0s.25.01.25.01c1.52,0,1.6.8,1.6,2.1v3.25h-12.75v25.5h12.75v1h58.12v-1Zm30.69,58.02h-4.49v-23.26h6.16c11.01,0,13.04,4.71,13.04,11.23,0,8.11-3.91,12.03-14.71,12.03m29.41,26.44v-.58c-3.69-.36-5.94-2.83-8.11-7.68l-4.2-9.35c-2.61-5.8-7.46-8.26-13.11-8.26v-.29c8.48,0,16.16-3.91,16.16-12.39,0-8.04-4.93-12.17-17.82-12.17h-17.46v.58c4.78.22,5.72,1.74,5.72,5.72v37.38c0,5.22-.94,6.23-5.72,6.45v.58h16.37v-.58c-4.78-.22-5.72-1.23-5.72-6.45v-18.4h5c6.45,0,8.33,1.52,11.52,8.4l4.06,8.84c1.16,2.54,2.97,6.38,4.06,8.19h9.27Z"/></g></svg>