<?xml version="1.0" encoding="UTF-8"?>
<svg id="Vrstva_2" data-name="Vrstva 2" xmlns="http://www.w3.org/2000/svg" viewBox="0 0 691.36 207.62">
  <defs>
    <style>
      .cls-1 {
        fill: #8a8a89;
      }

      .cls-2 {
        fill: #fff;
      }

      .cls-3 {
        fill: #e41e36;
      }
    </style>
  </defs>
  <g id="Vrstva_1-2" data-name="Vrstva 1">
    <rect class="cls-3" width="188.55" height="207.62"/>
    <path class="cls-2" d="M157.62,190.73h10.31v2.33h-22.45l-13.79-42.74,14.2-37.11h-6.21v-2.34h15.99v2.34h-5.58l-9.68,25.66,17.22,51.86ZM135.85,190.73v2.33h-21.21v-2.33h5.06l-.02-110.36h-6.31v-2.34h17.62l.08,112.7"/>
    <path class="cls-2" d="M108.82,78.02h-54.85l-.03-36.93c0-19.53,3.31-23.83,6.42-24.19,2.81-.3,4.41,1.53,5.6,5.06,1.55,4.71,2.5,8.5,3.78,16h2.24l.79-22.25c-3.79-1.12-8.96-1.93-13.13-1.16-12.47,2.24-17.08,11.89-17.08,37.64v25.83h-22.28v2.36h22.27v110.36h-6.3l-.03,2.33h24.04v-2.33h-6.3v-110.36h54.85"/>
    <path class="cls-2" d="M79.81,170.23c.05,13.48,1.79,20.9,6.91,20.9,5.68,0,6.87-7.38,6.87-20.96v-38.5c0-15.71-3.32-19.39-6.87-19.39s-6.91,3.68-6.91,19.39v38.56ZM67.44,151.88c0-21.03,6.31-41.86,19.58-41.86s19.56,20.83,19.56,41.86-6.35,41.63-19.56,41.63-19.58-20.8-19.58-41.63"/>
    <g>
      <path class="cls-1" d="M251.85,145.93c-.36-.08-.71-.16-1.06-.25l-.38-.08c-5.8-1.27-9.3-2.04-9.3-5.89s3.18-6.21,8.1-6.21,9.24,2.46,11.56,6.92l.06.11,5.34-4.26.06-.05-.04-.07c-2.71-5.41-9.24-8.91-16.65-8.91-4.44,0-8.47,1.29-11.35,3.64-2.9,2.37-4.5,5.71-4.5,9.42,0,8.78,7.29,10.39,14.34,11.95l1.01.21c6.6,1.37,10.23,2.13,10.23,6.53,0,4.95-5.03,6.71-9.33,6.71-5.69,0-10.8-3.13-13.03-7.98l-.05-.11-5.84,4.25-.07.05.04.08c3.06,6.21,10.33,10.06,18.95,10.06,9.7,0,16.75-5.77,16.75-13.71,0-8.98-7.89-10.8-14.84-12.4Z"/>
      <path class="cls-1" d="M407.65,111.26c-.92-.05-1.65-.1-2.71-.1-8.56,0-13.47,4.94-13.47,13.55v3.34h-6.48v6.51h6.48v36.57h7.58v-36.57h9.51v-6.51h-9.51v-2.85c0-5.1,1.98-7.28,6.62-7.28,1.22,0,1.96,0,3.18.16h.11s0-6.75,0-6.75h-.09c-.47-.03-.87-.05-1.23-.07Z"/>
      <polygon class="cls-1" points="684.13 112.22 684.24 112.06 674.72 112.06 669.85 123.52 669.79 123.66 675.82 123.66 684.13 112.22"/>
      <path class="cls-1" d="M363.87,127.23c-7.8,0-12.11,4.92-13.68,7.2-2.3-4.64-6.52-7.2-11.91-7.2-6.8,0-10.56,3.89-12.28,6.41v-5.59h-7.58v43.09h7.58v-25.77c0-6.92,5.12-11.05,10.07-11.05,7.33,0,8.43,6.51,8.43,10.4v26.42h7.58v-25.77c0-6.92,5.12-11.05,10.07-11.05,7.33,0,8.43,6.51,8.43,10.4v26.42h7.58v-28.39c0-9.43-5.61-15.52-14.29-15.52Z"/>
      <path class="cls-1" d="M291.15,160.66l-11.96-32.54-.02-.07h-8.01l15.95,41.43-2.04,5.05c-1.64,4.05-3.23,5.35-6.55,5.35-1.15,0-2.05-.07-3.5-.41l-.12-.03v6.61l.08.02c1.36.26,2.27.33,4.04.33,3.57,0,6.38-.94,8.58-2.88,1.9-1.67,3.42-4.14,4.79-7.76l18.45-47.56.05-.14h-7.92l-11.82,32.61Z"/>
      <path class="cls-1" d="M432.62,127.23c-5.8,0-10.79,2.14-14.43,6.2-3.66,4.07-5.59,9.68-5.59,16.2s1.93,12.13,5.59,16.2c3.64,4.06,8.64,6.2,14.43,6.2s10.79-2.14,14.44-6.2c3.66-4.07,5.59-9.68,5.59-16.2s-1.93-12.13-5.59-16.2c-3.64-4.06-8.64-6.2-14.44-6.2ZM444.99,149.64c0,9.65-4.85,15.89-12.36,15.89s-12.36-6.24-12.36-15.89,4.85-15.97,12.36-15.97,12.36,6.27,12.36,15.97Z"/>
      <rect class="cls-1" x="508.56" y="128.05" width="7.58" height="43.09"/>
      <polygon class="cls-1" points="630.24 161.72 618.28 128.12 618.26 128.05 610.25 128.05 626.37 171.07 626.4 171.14 633.84 171.14 649.93 128.19 649.98 128.05 642.06 128.05 630.24 161.72"/>
      <path class="cls-1" d="M691.36,148.32c0-6.08-1.62-11.28-4.68-15.02-3.25-3.97-7.99-6.07-13.71-6.07-11.51,0-19.86,9.42-19.86,22.4,0,6.5,1.94,12.09,5.61,16.17,3.67,4.08,8.71,6.23,14.58,6.23,8.43,0,15.06-4.62,17.72-12.37l.03-.09-6.57-2.33-.1-.04-.03.11c-1.31,5.09-5.45,8.13-11.05,8.13-7.43,0-12.49-5.71-12.93-14.56h30.99v-2.56ZM660.8,145.03c1.31-7.07,5.83-11.28,12.1-11.28,7.69,0,10.62,5.81,10.8,11.28h-22.9Z"/>
      <path class="cls-1" d="M587.04,127.23c-5.8,0-10.79,2.14-14.43,6.2-3.66,4.07-5.59,9.68-5.59,16.2s1.93,12.13,5.59,16.2c3.64,4.06,8.64,6.2,14.43,6.2s10.79-2.14,14.44-6.2c3.66-4.07,5.59-9.68,5.59-16.2s-1.93-12.13-5.59-16.2c-3.64-4.06-8.64-6.2-14.44-6.2ZM599.41,149.64c0,9.65-4.85,15.89-12.37,15.89s-12.36-6.24-12.36-15.89,4.85-15.97,12.36-15.97,12.37,6.27,12.37,15.97Z"/>
      <polygon class="cls-1" points="563.87 128.22 564.04 128.05 554.57 128.05 535.69 147.91 535.69 112.06 528.11 112.06 528.11 171.14 535.69 171.14 535.69 156.73 541.81 150.53 556.53 171.14 565.38 171.14 547.2 145.05 563.87 128.22"/>
      <rect class="cls-1" x="508.23" y="112.06" width="8.24" height="8.73"/>
      <path class="cls-1" d="M482.48,127.23c-6.9,0-10.86,3.91-12.69,6.43v-5.61h-7.58v43.09h7.58v-25.68c0-7.23,5.48-11.13,10.64-11.13,5.7,0,8.84,3.69,8.84,10.4v26.42h7.58v-28.39c0-9.57-5.5-15.52-14.37-15.52Z"/>
    </g>
    <g>
      <path class="cls-1" d="M258.64,39.06h-22.57v59.08h8.07v-24.68h14.5c12.85,0,20.52-6.44,20.52-17.24s-7.48-17.16-20.52-17.16ZM244.14,46.07h14.09c8.34,0,12.94,3.6,12.94,10.15s-4.59,10.23-12.94,10.23h-14.09v-20.38Z"/>
      <polygon class="cls-1" points="414.69 50.66 422.83 50.66 431 39.06 425.03 39.06 418.76 45.42 412.51 39.09 412.48 39.06 406.51 39.06 414.66 50.62 414.69 50.66"/>
      <polygon class="cls-1" points="373 50.66 381.14 50.66 389.2 39.22 389.31 39.06 383.34 39.06 377.07 45.42 370.83 39.09 370.8 39.06 364.82 39.06 372.97 50.62 373 50.66"/>
      <polygon class="cls-1" points="489.4 39.06 479.87 39.06 475.01 50.52 474.95 50.66 480.97 50.66 489.4 39.06"/>
      <path class="cls-1" d="M306.33,54.72c-5.25,0-9.63,2.71-11.79,7.26v-6.94h-7.58v43.09h7.58v-23.55c0-7.16,4.68-12.36,11.13-12.36,1.43,0,2.4.09,3.59.33l.12.02v-7.67h-.09c-.55-.07-1.67-.17-2.96-.17Z"/>
      <rect class="cls-1" x="474.01" y="55.05" width="7.58" height="43.09"/>
      <path class="cls-1" d="M461.01,91.87c-3.82,0-5.89-.83-5.89-5.23v-25.07h9.76v-6.51h-9.76v-12.55h-7.5v12.55h-6.64v6.51h6.64v26.22c0,7.54,3.46,10.76,11.58,10.76,2.33,0,4.46-.22,6.5-.66l.08-.02v-6.52l-.12.03c-1.73.41-2.97.49-4.65.49Z"/>
      <path class="cls-1" d="M420.58,72.93c-.36-.08-.71-.16-1.06-.25l-.38-.08c-5.8-1.27-9.3-2.04-9.3-5.89s3.18-6.21,8.1-6.21,9.24,2.46,11.55,6.92l.06.11,5.34-4.26.06-.05-.04-.07c-2.71-5.41-9.24-8.91-16.65-8.91-4.44,0-8.47,1.29-11.35,3.64-2.9,2.37-4.5,5.71-4.5,9.42,0,8.78,7.29,10.39,14.34,11.95l1.02.21c6.6,1.37,10.23,2.13,10.23,6.53,0,4.95-5.03,6.71-9.33,6.71-5.69,0-10.8-3.13-13.03-7.98l-.05-.11-5.91,4.3.04.08c3.06,6.21,10.33,10.06,18.95,10.06,9.7,0,16.75-5.77,16.75-13.71,0-8.98-7.88-10.8-14.84-12.4Z"/>
      <polygon class="cls-1" points="393.63 60.87 393.65 60.84 393.65 55.05 360.24 55.05 360.24 61.57 384.57 61.57 359.93 92.4 359.91 92.43 359.91 98.14 393.9 98.14 393.9 91.62 369.48 91.62 393.63 60.87"/>
      <path class="cls-1" d="M349.71,91.68c-.64-.51-.97-1.38-.97-2.58v-20.91c0-4.53-1.41-8.04-4.19-10.45-2.69-2.33-6.53-3.51-11.41-3.51-8.45,0-15.05,4.61-17.23,12.04l-.03.1,7.07,1.83.1.02.03-.1c1.34-4.86,4.56-7.22,9.83-7.22,5.54,0,8.35,2.56,8.35,7.61v1.72l-10.33,2.12c-5.4,1.11-9.14,2.56-11.76,4.57-3.07,2.35-4.56,5.48-4.56,9.55,0,7.3,5.84,12.4,14.2,12.4,5.49,0,10.38-2.03,13.15-5.45.98,3.94,4.78,5.53,11.3,4.71h.09v-6.13l-.12.03c-1.58.36-2.75.24-3.5-.36ZM337.83,90.1c-2.15,1.67-5.04,2.59-8.13,2.59-4.69,0-7.61-2.51-7.61-6.54,0-5,4.17-6.84,10.91-8.18l8.24-1.78v7.26c0,2.58-1.21,4.94-3.42,6.66Z"/>
    </g>
  </g>
</svg>