<svg width="512" height="513" viewBox="0 0 512 513" fill="none" xmlns="http://www.w3.org/2000/svg">
<path d="M256 0.859375C114.605 0.859375 0 115.465 0 256.859C0 398.254 114.605 512.86 256 512.86C397.395 512.86 512 398.254 512 256.859C512 115.465 397.395 0.859375 256 0.859375ZM253.944 400.978C276.787 400.978 308.301 397.643 308.301 366.629V338.173C308.301 300.823 306.466 294.542 272.452 291.208V284.205H381.499V291.208C357.933 294.542 357.933 300.823 357.933 338.173V386.582C330.421 406.536 283.29 415.039 248.108 415.039C165.183 415.039 113.105 360.849 109.659 284.205H137.449V118.077H381.721L358.155 165.153H192.75V284.205H164.905C167.128 355.013 200.976 400.978 253.832 400.978H253.944Z" fill="black"/>
</svg>
