<svg xmlns="http://www.w3.org/2000/svg" width="164" height="61" fill="none" viewBox="0 0 164 61"><path fill="#0086CD" d="M20.144.83c-4.636 2.039-6.672 6.867-6.672 13.188l.012 15.703H9.45v.532h4.034v15.265c.1 2.409.027 4.82-.217 7.218-.359 2.59-1.226 4.685-3.388 5.975a5.918 5.918 0 0 1-4.958.239 3.33 3.33 0 0 1-2.016-2.151h.012a2.125 2.125 0 0 0 1.918-2.184 2.074 2.074 0 0 0-2.1-2.05 2.2 2.2 0 0 0-2.22 2.086 4.27 4.27 0 0 0 1.16 3.224 7.359 7.359 0 0 0 8.224 1.637c4.638-2.04 6.672-6.865 6.672-13.189l-.014-16.074h4.001v-.533h-4.006V14.825a50.36 50.36 0 0 1 .22-7.216c.359-2.593 1.226-4.69 3.389-5.976a5.915 5.915 0 0 1 4.958-.24 3.327 3.327 0 0 1 2.017 2.154 2.12 2.12 0 0 0-1.93 2.178 2.076 2.076 0 0 0 2.1 2.051 2.194 2.194 0 0 0 2.22-2.084 4.26 4.26 0 0 0-1.159-3.231A7.352 7.352 0 0 0 20.144.83ZM49.168 40.06c-.837-.38-1.795-.571-2.872-.571h-6.17v16.04h2.333a34.255 34.255 0 0 1-.11-2.917v-4.105h3.902c1.062 0 2.013-.194 2.85-.582.837-.39 1.5-.928 1.985-1.616a3.94 3.94 0 0 0 .73-2.333c0-.868-.234-1.642-.696-2.322-.464-.68-1.115-1.213-1.952-1.594ZM49 45.434c-.292.434-.705.767-1.235.999-.53.23-1.126.348-1.783.348h-3.634v-5.566h3.678c.644 0 1.227.113 1.75.338.524.224.932.546 1.224.964.292.42.438.905.438 1.459A2.55 2.55 0 0 1 49 45.434ZM59.151 43.01c-.628 0-1.237.3-1.829.899-.59.597-1.08 1.383-1.47 2.355v-2.94h-2.018V55.53h2.153c-.089-.777-.134-1.689-.134-2.737V49.36c0-.793.134-1.525.405-2.199.268-.672.612-1.212 1.032-1.615.418-.404.836-.606 1.256-.606.298 0 .55.053.751.158.202.104.424.283.662.537l.83-1.906a2.33 2.33 0 0 0-.741-.55 2.218 2.218 0 0 0-.897-.168ZM72.478 54.34c-.211 0-.362-.06-.46-.179-.099-.12-.145-.307-.145-.56v-6.484c0-.837-.146-1.56-.438-2.165-.292-.606-.751-1.081-1.38-1.426-.629-.343-1.422-.515-2.379-.515-1.167 0-2.26.265-3.276.796s-1.875 1.335-2.579 2.413l1.503 1.232c.463-.941 1.062-1.656 1.795-2.14a4.258 4.258 0 0 1 2.401-.73c.777 0 1.36.239 1.75.718.389.478.583 1.114.583 1.906v.374c-1.575.155-2.957.417-4.13.792-1.256.405-2.234.959-2.938 1.661-.702.703-1.055 1.563-1.055 2.58 0 .973.328 1.754.977 2.344.65.592 1.521.887 2.613.887.988 0 1.867-.266 2.637-.796a5.347 5.347 0 0 0 1.795-2.131c.045-.094.06-.197.1-.292v1.087c0 .66.176 1.178.528 1.559.35.381.827.573 1.426.573a2.954 2.954 0 0 0 1.278-.314l.247-1.436c-.166.089-.312.153-.439.191a1.494 1.494 0 0 1-.414.056Zm-2.625-4.44c0 .85-.194 1.602-.583 2.253a4.03 4.03 0 0 1-1.515 1.492 3.918 3.918 0 0 1-1.918.516c-.584 0-1.054-.16-1.413-.482-.36-.321-.54-.76-.54-1.313 0-.703.267-1.275.797-1.716.531-.441 1.26-.782 2.188-1.021.84-.216 1.847-.377 2.984-.496v.766ZM83.628 44.806v-1.481h-9.31l-.024 1.57h6.877l-6.877 9.153v1.482h9.58v-1.57h-7.096l6.85-9.154ZM79.947 42.226l2.986-3.321H81.25l-2.243 1.93-2.244-1.93H75.08l2.961 3.321h1.906ZM92.736 49.046c-.584-.254-1.346-.523-2.289-.808a16.704 16.704 0 0 1-1.558-.539 3.038 3.038 0 0 1-.987-.628 1.256 1.256 0 0 1-.395-.942c0-.478.207-.863.618-1.155.41-.292.94-.437 1.582-.437.688 0 1.361.187 2.019.561.659.374 1.136.95 1.437 1.727l1.525-1.257c-.643-.942-1.388-1.604-2.232-1.985a6.61 6.61 0 0 0-2.749-.572c-.793 0-1.503.143-2.13.426-.63.285-1.123.676-1.482 1.178a2.819 2.819 0 0 0-.54 1.672c0 .763.202 1.379.607 1.85.404.471.882.83 1.436 1.077.553.247 1.27.505 2.153.774.733.21 1.305.4 1.718.573.411.172.75.403 1.019.695.27.292.404.662.404 1.11 0 .39-.103.733-.314 1.032-.21.3-.493.528-.852.684-.36.158-.77.236-1.233.236a4.222 4.222 0 0 1-2.469-.763c-.733-.508-1.287-1.21-1.659-2.11l-1.481 1.258a6.55 6.55 0 0 0 2.343 2.288 6.358 6.358 0 0 0 3.242.852 5.62 5.62 0 0 0 2.232-.436c.68-.292 1.216-.715 1.606-1.268.388-.553.582-1.196.582-1.93 0-.838-.213-1.51-.64-2.02a4.093 4.093 0 0 0-1.513-1.143ZM107.229 43.325h-2.356c-.209.314-.425.613-.65.898a6.738 6.738 0 0 1-.786.83l-4.262 4.302V39.49h-2.019v16.04h2.019v-4.027l2.014-1.947 4.088 5.974h2.445l-5.097-7.423 4.604-4.781ZM118.221 38.905h-2.714l-2.603 3.322h1.592l3.725-3.322ZM116.439 53.42c-.666.569-1.455.854-2.368.854-.659 0-1.263-.18-1.818-.54-.552-.359-.986-.889-1.3-1.591-.308-.687-.459-1.505-.466-2.447h8.812c0-1.376-.199-2.56-.596-3.555-.396-.995-.986-1.764-1.772-2.31-.784-.547-1.738-.82-2.86-.82-1.092 0-2.072.28-2.94.84-.867.562-1.544 1.348-2.03 2.357-.485 1.01-.727 2.164-.727 3.466 0 1.316.253 2.438.762 3.365.509.928 1.195 1.628 2.062 2.098.868.471 1.826.706 2.873.706 1.106 0 2.12-.284 3.04-.852.92-.568 1.701-1.398 2.344-2.49l-1.637-1.166a4.406 4.406 0 0 1-1.379 2.085Zm-5.509-6.461c.299-.763.718-1.35 1.256-1.76.539-.412 1.168-.618 1.885-.618.659 0 1.226.18 1.705.539.479.36.841.856 1.088 1.491.177.456.267.972.317 1.515h-6.567c.074-.415.176-.808.316-1.167ZM128.676 39.31h-2.267v2.153h2.267v-2.154ZM126.523 57.258c0 .493-.09.825-.27.997a.934.934 0 0 1-.673.259c-.269 0-.497-.038-.684-.113a4.231 4.231 0 0 1-.64-.336l.247 1.863c.209.089.441.159.696.211.253.053.515.08.785.08.883 0 1.529-.233 1.942-.696.41-.463.616-1.167.616-2.11V43.326h-2.019v13.932ZM141.643 54.34c-.21 0-.363-.06-.461-.179-.097-.12-.145-.307-.145-.56v-6.484c0-.837-.146-1.56-.437-2.165-.291-.606-.752-1.081-1.382-1.426-.628-.343-1.419-.515-2.377-.515a6.978 6.978 0 0 0-3.275.796c-1.016.531-1.877 1.335-2.579 2.413l1.501 1.232c.465-.941 1.064-1.656 1.797-2.14a4.246 4.246 0 0 1 2.399-.73c.779 0 1.36.239 1.75.718.39.478.583 1.114.583 1.906v.374c-1.575.155-2.957.417-4.128.792-1.256.405-2.234.959-2.938 1.661-.704.703-1.055 1.563-1.055 2.58 0 .973.326 1.754.976 2.344.651.592 1.522.887 2.614.887.987 0 1.866-.266 2.635-.796a5.342 5.342 0 0 0 1.797-2.131c.044-.093.059-.195.099-.288v1.084c0 .658.175 1.177.529 1.558.35.381.825.573 1.424.573a2.957 2.957 0 0 0 1.278-.314l.248-1.436c-.167.089-.313.153-.438.191a1.502 1.502 0 0 1-.415.056Zm-2.626-4.44c0 .85-.193 1.602-.583 2.253a4.03 4.03 0 0 1-1.515 1.492 3.904 3.904 0 0 1-1.917.516c-.583 0-1.055-.16-1.413-.482-.359-.321-.54-.76-.54-1.313 0-.703.266-1.275.798-1.716.531-.441 1.258-.782 2.187-1.021.839-.216 1.848-.377 2.983-.496v.766ZM149.674 43.01c-.628 0-1.236.3-1.827.899-.592.597-1.081 1.383-1.47 2.355v-2.94h-2.02V55.53h2.154a24.4 24.4 0 0 1-.134-2.737V49.36c0-.793.134-1.525.405-2.199.268-.672.612-1.212 1.031-1.615.418-.404.837-.606 1.256-.606.298 0 .549.053.751.158.202.104.423.283.663.537l.829-1.906a2.324 2.324 0 0 0-.74-.55 2.226 2.226 0 0 0-.898-.168ZM163.068 46.196a5.663 5.663 0 0 0-1.997-2.322c-.868-.576-1.884-.863-3.052-.863-1.165 0-2.187.284-3.061.853a5.405 5.405 0 0 0-1.986 2.299c-.449.965-.672 2.046-.672 3.242 0 1.196.223 2.28.672 3.253a5.489 5.489 0 0 0 1.975 2.323c.867.575 1.891.862 3.072.862 1.183 0 2.206-.287 3.074-.862a5.565 5.565 0 0 0 1.987-2.323c.455-.973.683-2.057.683-3.253 0-1.167-.231-2.236-.695-3.209Zm-1.908 5.666c-.283.74-.695 1.327-1.233 1.76-.539.436-1.183.651-1.929.651-.734 0-1.373-.213-1.918-.639-.546-.427-.958-1.002-1.236-1.728-.276-.724-.414-1.551-.414-2.48 0-.91.143-1.734.426-2.468.285-.731.696-1.31 1.234-1.737.539-.427 1.174-.64 1.908-.64.746 0 1.39.213 1.929.64.538.426.95 1.002 1.233 1.727.285.727.426 1.544.426 2.457 0 .897-.141 1.716-.426 2.457Z"/></svg>